<?xml version="1.0" encoding="utf-8"?>
<!-- Generator: Adobe Illustrator 24.0.1, SVG Export Plug-In . SVG Version: 6.00 Build 0)  -->
<svg version="1.1" id="New" xmlns="http://www.w3.org/2000/svg" xmlns:xlink="http://www.w3.org/1999/xlink" x="0px" y="0px"
	 viewBox="0 0 165 165" style="enable-background:new 0 0 165 165;" xml:space="preserve">
<style type="text/css">
	.st0{fill:#656565;}
	.st1{fill:#FFFFFF;}
	.st2{display:none;fill:#FFFFFF;}
	.st3{display:none;}
	.st4{display:inline;fill:#FFFFFF;}
	.st5{fill:#1E1E1C;}
	.st6{display:inline;}
</style>
<g id="Circle_2_">
	<path class="st0" d="M46.6,28.5c7,0.1,16.6-4,21.3-9.1l4.5-4.9c4.7-5.2,12.5-5.3,17.4-0.2l4.6,4.8c4.8,5.1,14.5,8.9,21.5,8.6
		l6.6-0.3c7-0.3,12.6,5.1,12.4,12.1l-0.1,6.6c-0.1,7,4,16.6,9.1,21.3l4.9,4.5c5.2,4.7,5.3,12.5,0.2,17.4l-4.8,4.6
		c-5.1,4.8-8.9,14.5-8.6,21.5l0.3,6.6c0.3,7-5.1,12.6-12.1,12.4l-6.6-0.1c-7-0.1-16.6,4-21.3,9.1l-4.5,4.9
		c-4.7,5.2-12.5,5.3-17.4,0.2l-4.6-4.8c-4.8-5.1-14.5-8.9-21.5-8.6l-6.6,0.3c-7,0.3-12.6-5.1-12.4-12.1l0.1-6.6
		c0.1-7-4-16.6-9.1-21.3l-4.9-4.5c-5.2-4.7-5.3-12.5-0.2-17.4l4.8-4.6c5-4.8,8.9-14.5,8.6-21.5l-0.3-6.6c-0.3-7,5.1-12.6,12.1-12.4
		L46.6,28.5z"/>
</g>
<g>
	<path class="st1" d="M81.1,132.6c-28.2,0-51.2-23-51.2-51.2c0-28.2,23-51.2,51.2-51.2c28.2,0,51.2,23,51.2,51.2
		C132.3,109.6,109.3,132.6,81.1,132.6z M81.1,35.2c-25.5,0-46.2,20.7-46.2,46.2c0,25.5,20.7,46.2,46.2,46.2
		c25.5,0,46.2-20.7,46.2-46.2C127.3,55.9,106.6,35.2,81.1,35.2z"/>
	<path class="st1" d="M81.1,125.6c-24.4,0-44.2-19.8-44.2-44.2c0-24.4,19.8-44.2,44.2-44.2c24.4,0,44.2,19.8,44.2,44.2
		C125.3,105.8,105.5,125.6,81.1,125.6z M81.1,38.9c-23.5,0-42.5,19.1-42.5,42.5c0,23.5,19.1,42.5,42.5,42.5
		c23.5,0,42.5-19.1,42.5-42.5C123.6,57.9,104.6,38.9,81.1,38.9z"/>
	<path class="st1" d="M81.1,107.9c-14.6,0-26.5-11.9-26.5-26.5c0-14.6,11.9-26.5,26.5-26.5s26.5,11.9,26.5,26.5
		C107.7,96,95.7,107.9,81.1,107.9z M81.1,58.2c-12.8,0-23.2,10.4-23.2,23.2c0,12.8,10.4,23.2,23.2,23.2c12.8,0,23.2-10.4,23.2-23.2
		C104.3,68.6,93.9,58.2,81.1,58.2z"/>
	<path class="st2" d="M100.9,97.8H61.3L61,97.4c-3.7-4.6-5.6-10.2-5.6-16.1c0-5.9,2-11.4,5.6-16.1l0.3-0.3h39.6l0.3,0.3
		c3.7,4.6,5.6,10.2,5.6,16.1c0,5.9-2,11.4-5.6,16.1L100.9,97.8z M62.1,96.1h38c3.3-4.2,5-9.3,5-14.7c0-5.4-1.7-10.4-5-14.7h-38
		c-3.3,4.2-5,9.3-5,14.7C57.1,86.8,58.8,91.8,62.1,96.1z"/>
	<g class="st3">
		<path class="st4" d="M50.5,58.6l1.5,0.9c1.8,1.1,2.3,2.6,1.2,4.4l-0.5,0.8l4.3,2.6l-1.1,1.8l-11.4-7l1.6-2.6
			C47.1,57.7,48.7,57.5,50.5,58.6z M47.1,61.4l3.9,2.4l0.5-0.8c0.4-0.6,0.3-1-0.5-1.5l-1.7-1.1c-0.8-0.5-1.3-0.4-1.6,0.2L47.1,61.4z
			"/>
		<path class="st4" d="M51.9,56.7c-1.5-1.5-1.6-3.2-0.1-4.6c1.5-1.5,3.1-1.4,4.6,0.1l4.9,4.9c1.5,1.5,1.6,3.2,0.1,4.6
			c-1.5,1.5-3.1,1.4-4.6-0.1L51.9,56.7z M58.4,60.2c0.7,0.7,1.2,0.6,1.7,0.2c0.5-0.5,0.5-1-0.2-1.7l-5.1-5.1
			c-0.7-0.7-1.2-0.6-1.7-0.2c-0.5,0.5-0.5,1,0.2,1.7L58.4,60.2z"/>
		<path class="st4" d="M59.5,46c1.7-1.1,3.3-0.6,4.4,1.3l0.2,0.4l-1.7,1l-0.3-0.5c-0.5-0.8-1-0.9-1.6-0.6c-0.6,0.4-0.7,0.9-0.2,1.7
			c1.4,2.3,5.2,0.6,7.2,3.9c1.1,1.8,0.8,3.4-0.9,4.5c-1.8,1.1-3.3,0.6-4.4-1.2l-0.4-0.7l1.7-1l0.5,0.8c0.5,0.8,1,0.9,1.6,0.5
			c0.6-0.3,0.8-0.9,0.3-1.7c-1.4-2.3-5.2-0.6-7.2-3.9C57.5,48.6,57.8,47.1,59.5,46z"/>
		<path class="st4" d="M64.8,43.3l6.2-2.1l0.6,1.8l-2.1,0.7l3.7,10.9l-2,0.7l-3.7-10.9l-2.1,0.7L64.8,43.3z"/>
		<path class="st4" d="M80.8,39.9c2,0,3.1,1.2,3.1,3.4v0.4l-2,0l0-0.6c0-1-0.4-1.3-1.1-1.3c-0.7,0-1,0.4-1,1.3
			c0,2.8,4.1,3.3,4.1,7.1c0,2.1-1.1,3.4-3.1,3.4c-2.1,0-3.1-1.2-3.1-3.4l0-0.8l2,0l0,1c0,1,0.4,1.3,1.1,1.3c0.7,0,1.1-0.3,1.1-1.3
			c0-2.8-4.1-3.3-4.1-7.1C77.7,41.1,78.8,39.9,80.8,39.9z"/>
		<path class="st4" d="M86.7,40.3l6.3,1.4l-0.4,1.9l-2.1-0.5l-2.4,11.2l-2.1-0.4l2.4-11.2l-2.1-0.5L86.7,40.3z"/>
		<path class="st4" d="M96,57.4L94,56.5l0.7-2.4l-2.4-1.1L91,55.2l-1.8-0.8l7.5-11.3l2.8,1.3L96,57.4z M93.3,51.6l1.8,0.8l1.9-6.6
			L93.3,51.6z"/>
		<path class="st4" d="M102,57.4l7.3-6.2l2.2,1.9l-8.8,10.1l-1.5-1.3l6.3-7.3l-7.4,6.3l-1.5-1.3l5-8.2l-6.2,7.2l-1.4-1.2l8.8-10.1
			l2.2,1.9L102,57.4z"/>
		<path class="st4" d="M114.8,63.5l-1.5,1c-1.8,1.2-3.3,0.9-4.5-0.8l-0.5-0.8l-4.2,2.7l-1.1-1.8l11.2-7.3l1.7,2.6
			C117,60.8,116.6,62.3,114.8,63.5z M113.7,59.3l-3.8,2.5l0.5,0.8c0.4,0.6,0.8,0.7,1.6,0.2l1.7-1.1c0.8-0.5,0.9-1,0.5-1.6
			L113.7,59.3z"/>
	</g>
	<g class="st3">
		<path class="st4" d="M111.8,104l-1.5-0.9c-1.8-1.1-2.3-2.6-1.2-4.4l0.5-0.8l-4.3-2.6l1.1-1.8l11.4,7l-1.6,2.6
			C115.2,104.9,113.6,105.2,111.8,104z M115.2,101.2l-3.9-2.4l-0.5,0.8c-0.3,0.6-0.3,1,0.5,1.5l1.7,1c0.8,0.5,1.3,0.3,1.6-0.2
			L115.2,101.2z"/>
		<path class="st4" d="M110.4,106c1.5,1.5,1.6,3.2,0.1,4.6c-1.5,1.5-3.1,1.4-4.6-0.1l-4.9-4.9c-1.5-1.5-1.6-3.2-0.1-4.6
			c1.5-1.5,3.1-1.4,4.6,0.1L110.4,106z M103.9,102.5c-0.7-0.7-1.2-0.6-1.7-0.2c-0.5,0.5-0.5,1,0.2,1.7l5.1,5.1
			c0.7,0.7,1.2,0.6,1.7,0.2c0.5-0.5,0.5-1-0.2-1.7L103.9,102.5z"/>
		<path class="st4" d="M102.9,116.7c-1.7,1.1-3.3,0.6-4.4-1.2l-0.2-0.4l1.7-1l0.3,0.5c0.5,0.8,1,0.9,1.6,0.6
			c0.6-0.4,0.7-0.9,0.2-1.7c-1.4-2.3-5.2-0.6-7.2-3.9c-1.1-1.8-0.9-3.4,0.9-4.5c1.8-1.1,3.3-0.6,4.4,1.2l0.4,0.7l-1.7,1l-0.5-0.8
			c-0.5-0.8-1-0.9-1.6-0.5c-0.6,0.4-0.7,0.9-0.2,1.7c1.4,2.3,5.2,0.6,7.2,3.9C104.9,114,104.6,115.6,102.9,116.7z"/>
		<path class="st4" d="M97.6,119.4l-6.1,2.1l-0.6-1.8l2.1-0.7l-3.7-10.9l2-0.7l3.7,10.9l2.1-0.7L97.6,119.4z"/>
		<path class="st4" d="M81.6,122.9c-2,0-3.1-1.2-3.1-3.3l0-0.4l2,0l0,0.6c0,1,0.4,1.3,1.1,1.3c0.7,0,1-0.4,1-1.3
			c0-2.8-4.1-3.2-4.2-7.1c0-2.1,1-3.4,3.1-3.4c2.1,0,3.1,1.2,3.2,3.3l0,0.8l-2,0l0-1c0-1-0.4-1.3-1.1-1.3c-0.7,0-1.1,0.4-1.1,1.3
			c0,2.8,4.1,3.2,4.2,7.1C84.6,121.6,83.6,122.8,81.6,122.9z"/>
		<path class="st4" d="M75.7,122.5l-6.4-1.4l0.4-1.9l2.2,0.5l2.4-11.2l2.1,0.4L74,120.2l2.2,0.5L75.7,122.5z"/>
		<path class="st4" d="M66.4,105.4l1.9,0.9l-0.7,2.4l2.4,1.1l1.3-2.1l1.8,0.8l-7.4,11.3l-2.8-1.3L66.4,105.4z M69,111.2l-1.8-0.8
			l-1.8,6.6L69,111.2z"/>
		<path class="st4" d="M60.3,105.5l-7.3,6.3l-2.2-1.9l8.7-10.1l1.5,1.3l-6.2,7.3l7.4-6.3l1.5,1.3l-5,8.2l6.2-7.2l1.4,1.2l-8.7,10.1
			l-2.2-1.9L60.3,105.5z"/>
		<path class="st4" d="M47.5,99.4l1.5-1c1.8-1.2,3.3-1,4.5,0.8l0.5,0.8l4.2-2.8l1.2,1.8l-11.2,7.4l-1.7-2.6
			C45.3,102.1,45.7,100.6,47.5,99.4z M48.6,103.6l3.8-2.5l-0.5-0.8c-0.4-0.6-0.8-0.7-1.6-0.2l-1.7,1.1c-0.8,0.5-0.9,1-0.5,1.6
			L48.6,103.6z"/>
	</g>
	<g class="st3">
		<path class="st4" d="M69.4,70.5c1.3,0,1.6-0.6,1.8-1.3h1.1v10.6h-1.7v-8.1h-1.3V70.5z"/>
		<path class="st4" d="M76.8,70.5c-0.5,0-0.9,0.3-0.9,1v1.1h-1.6v-1c0-1.7,0.8-2.7,2.5-2.7c1.6,0,2.5,1,2.5,2.7
			c0,3.5-3.6,4.7-3.3,6.5h3.1v1.5h-4.8v-1.3c0-3.1,3.3-3.6,3.3-6.7C77.6,70.8,77.3,70.5,76.8,70.5z"/>
		<path class="st4" d="M81.9,78.1v1.6h-1.6v-1.6H81.9z"/>
		<path class="st4" d="M84.1,70.5c1.3,0,1.6-0.6,1.8-1.3h1.1v10.6h-1.7v-8.1h-1.3V70.5z"/>
		<path class="st4" d="M91.5,70.5c-0.5,0-0.9,0.3-0.9,1v1.1h-1.6v-1c0-1.7,0.8-2.7,2.5-2.7c1.6,0,2.5,1,2.5,2.7
			c0,3.5-3.6,4.7-3.3,6.5h3.1v1.5h-4.8v-1.3c0-3.1,3.3-3.6,3.3-6.7C92.4,70.8,92.1,70.5,91.5,70.5z"/>
		<path class="st4" d="M72.2,84c-0.5,0-0.9,0.3-0.9,1v1.1h-1.6v-1c0-1.7,0.8-2.7,2.5-2.7c1.6,0,2.5,1,2.5,2.7c0,3.5-3.6,4.7-3.3,6.5
			h3.1v1.5h-4.8v-1.3c0-3.1,3.3-3.6,3.3-6.7C73,84.2,72.7,84,72.2,84z"/>
		<path class="st4" d="M75.6,85.1c0-1.7,0.9-2.7,2.5-2.7c1.6,0,2.5,1,2.5,2.7v5.5c0,1.7-0.9,2.7-2.5,2.7c-1.6,0-2.5-1-2.5-2.7V85.1z
			 M77.3,90.7c0,0.8,0.3,1,0.9,1c0.5,0,0.9-0.3,0.9-1V85c0-0.8-0.3-1-0.9-1c-0.5,0-0.9,0.3-0.9,1V90.7z"/>
		<path class="st4" d="M82.7,83.9c1.3,0,1.6-0.6,1.8-1.3h1.1v10.6H84v-8.1h-1.3V83.9z"/>
		<path class="st4" d="M87.3,89.7l3-7.1h1.8v7.1h0.8v1.5h-0.8v1.9h-1.7v-1.9h-3.2V89.7z M90.5,89.7v-3.9l-1.6,3.9H90.5z"/>
	</g>
	<g>
		<polygon class="st1" points="46.4,76.4 47.7,80.1 51.7,80.2 48.5,82.6 49.7,86.4 46.4,84.1 43.2,86.4 44.3,82.6 41.1,80.2 
			45.1,80.1 		"/>
		<polygon class="st1" points="115.8,76.4 117.1,80.1 121.1,80.2 117.9,82.6 119.1,86.4 115.8,84.1 112.6,86.4 113.7,82.6 
			110.5,80.2 114.5,80.1 		"/>
	</g>
</g>
<g id="Jibres_1_">
	<circle id="Circle_1_" class="st5" cx="81.1" cy="81.3" r="23.2"/>
	<path id="Shape_1_" class="st1" d="M93.8,73.2v12.4H69.1V73.2H66v12.4c0,1.7,1.4,3.1,3.1,3.1h24.7c1.7,0,3.1-1.4,3.1-3.1V73.2H93.8
		z"/>
</g>
<g id="RoozAndish" class="st3">
	<g class="st6">
		<path class="st1" d="M44.3,97.5C44.4,97.5,44.4,97.4,44.3,97.5c0.1-0.1,0.2-0.1,0.2-0.1c0,0,0.1,0,0.1-0.1c0,0,0.1,0,0.1-0.1l0,0
			c0.1,0,0.2-0.1,0.2-0.1c0.1,0,0.2-0.1,0.3-0.1c0.2-0.1,0.4-0.2,0.5-0.3c0.2-0.1,0.4-0.2,0.6-0.4s0.4-0.3,0.6-0.4
			c0.2-0.2,0.4-0.3,0.6-0.6l0.5,0.4c-0.2,0.2-0.4,0.4-0.6,0.6c-0.2,0.2-0.4,0.3-0.6,0.5c-0.2,0.1-0.4,0.3-0.6,0.4s-0.4,0.2-0.6,0.3
			c-0.1,0.1-0.2,0.1-0.3,0.1c-0.1,0-0.2,0.1-0.2,0.1c0,0-0.1,0-0.1,0.1c0,0-0.1,0-0.1,0.1c0,0-0.1,0-0.1,0.1c0,0-0.1,0-0.1,0.1
			L44.3,97.5z"/>
		<path class="st1" d="M50.7,99.9c0,0-0.1,0.1-0.1,0.2c-0.1,0.1-0.1,0.1-0.2,0.2c-0.1,0.1-0.1,0.1-0.2,0.2c-0.1,0.1-0.1,0.1-0.2,0.2
			c-0.1,0.1-0.2,0.1-0.3,0.2c-0.1,0-0.2,0.1-0.4,0.1c-0.1,0-0.2,0-0.3-0.1c-0.1-0.1-0.2-0.1-0.3-0.3c0,0-0.1-0.1-0.1-0.2
			s0-0.1-0.1-0.2c0-0.1,0-0.1,0-0.2c0-0.1,0-0.2,0-0.2c-0.1,0-0.3,0-0.4-0.1c-0.1-0.1-0.2-0.1-0.3-0.2l0,0c0,0,0,0-0.1-0.1
			s0-0.1-0.1-0.1c0,0,0-0.1-0.1-0.1c0,0,0-0.1,0-0.1c-0.2,0.2-0.4,0.3-0.6,0.5s-0.4,0.3-0.5,0.4l-0.5,0.3l-0.4-0.6l0.4-0.3
			c0.2-0.1,0.4-0.3,0.6-0.4c0.2-0.2,0.4-0.3,0.7-0.5c0.2-0.2,0.4-0.4,0.6-0.6c0.2-0.2,0.4-0.4,0.6-0.7l0.5,0.4c0,0-0.1,0.1-0.1,0.1
			c0,0-0.1,0.1-0.1,0.1c0,0-0.1,0.1-0.1,0.1c0,0-0.1,0.1-0.1,0.2c0,0.1-0.1,0.1-0.1,0.2c0,0.1-0.1,0.1-0.1,0.2c0,0.1,0,0.1,0,0.2
			s0,0.1,0,0.2c0,0,0.1,0.1,0.1,0.1c0,0,0.1,0,0.2,0c0.1,0,0.1,0,0.2-0.1c0.1,0,0.2-0.1,0.3-0.2c0,0,0.1,0,0.1-0.1
			c0,0,0.1,0,0.1-0.1c0,0,0.1,0,0.1-0.1c0,0,0.1-0.1,0.1-0.1l0.4,0.5c-0.2,0.1-0.3,0.3-0.4,0.4c-0.1,0.1-0.2,0.2-0.3,0.3
			c-0.1,0.1-0.1,0.2-0.1,0.2c0,0.1,0,0.1,0.1,0.2c0,0,0.1,0.1,0.2,0.1c0.1,0,0.1,0,0.2-0.1c0.1,0,0.1-0.1,0.2-0.1s0.1-0.1,0.2-0.2
			c0.1-0.1,0.1-0.1,0.1-0.1c0,0,0.1-0.1,0.1-0.1L50.7,99.9z"/>
		<path class="st1" d="M52.3,101.5c0,0,0,0.1,0,0.1c0,0.1,0,0.2,0,0.3c0,0.1,0,0.3,0,0.4c0,0.2,0,0.3,0,0.5c0,0.2-0.1,0.4-0.1,0.6
			c0,0.2-0.1,0.4-0.2,0.6c-0.1,0.2-0.2,0.4-0.3,0.5s-0.2,0.3-0.4,0.4c-0.1,0.1-0.2,0.1-0.3,0.2c-0.1,0-0.2,0.1-0.3,0.1
			c-0.1,0-0.2,0-0.2,0c-0.1,0-0.1,0-0.2,0c-0.1,0-0.2-0.1-0.3-0.1s-0.2-0.1-0.3-0.2c-0.1-0.1-0.1-0.2-0.2-0.3s-0.1-0.2-0.1-0.3
			c-0.1,0-0.2-0.1-0.3-0.1c-0.1-0.1-0.2-0.1-0.3-0.2c-0.1-0.1-0.1-0.1-0.2-0.2c0-0.1-0.1-0.2-0.1-0.2c0-0.1,0-0.2,0-0.3
			c0-0.1,0-0.2,0-0.3c0-0.1,0.1-0.2,0.1-0.2c0-0.1,0.1-0.1,0.1-0.2c0,0,0.1-0.1,0.1-0.1c0,0,0.1-0.1,0.1-0.1
			c0.1-0.1,0.3-0.2,0.4-0.3s0.3-0.1,0.5-0.2c0.2-0.1,0.3-0.1,0.5-0.1c0.2,0,0.3,0,0.5-0.1c0.1,0,0.3,0,0.4,0c0.1,0,0.2,0,0.3,0
			l0-0.3L52.3,101.5z M50.5,104.7c0.1,0,0.1,0,0.2,0c0.1,0,0.1-0.1,0.2-0.1c0.1-0.1,0.2-0.2,0.2-0.3c0.1-0.1,0.1-0.2,0.2-0.3
			c0.1-0.1,0.1-0.2,0.1-0.4c0-0.1,0.1-0.3,0.1-0.4c0-0.1,0-0.3,0.1-0.4c0-0.1,0-0.3,0-0.4c-0.1,0-0.2,0-0.3,0c-0.1,0-0.2,0-0.4,0
			c-0.1,0-0.3,0-0.4,0.1c-0.1,0-0.3,0.1-0.4,0.1c-0.1,0-0.2,0.1-0.4,0.1s-0.2,0.1-0.3,0.2c0,0-0.1,0.1-0.1,0.1
			c0,0.1-0.1,0.1-0.1,0.2c0,0.1,0,0.1,0,0.2s0,0.1,0.1,0.2c0,0,0.1,0.1,0.1,0.1c0,0,0.1,0,0.1,0.1c0,0,0.1,0,0.1,0
			c0,0,0.1,0,0.1-0.1s0.1-0.1,0.1-0.1c0,0,0.1-0.1,0.1-0.1l0.5,0.4c0,0,0,0,0,0c0,0,0,0,0,0c0,0,0,0-0.1,0.1c0,0-0.1,0.1-0.1,0.1
			l0,0c0,0-0.1,0-0.1,0.1c0,0-0.1,0.1-0.1,0.1c0,0.1,0,0.1,0,0.2c0,0.1,0,0.1,0.1,0.2c0,0,0.1,0.1,0.1,0.1
			C50.5,104.7,50.5,104.7,50.5,104.7z"/>
		<path class="st1" d="M55.2,104.5c0,0,0,0.1,0,0.1s0,0.2,0,0.3s0,0.3,0,0.4c0,0.2,0,0.3,0,0.5c0,0.2,0,0.4,0,0.6
			c0,0.2-0.1,0.4-0.1,0.6c-0.1,0.2-0.1,0.4-0.2,0.6c-0.1,0.2-0.2,0.3-0.3,0.5c-0.1,0.1-0.2,0.2-0.3,0.2c-0.1,0.1-0.2,0.1-0.2,0.1
			c-0.1,0-0.2,0.1-0.2,0.1s-0.1,0-0.2,0c-0.1,0-0.2,0-0.3-0.1c-0.1,0-0.2-0.1-0.3-0.2c-0.1-0.1-0.2-0.2-0.2-0.3
			c-0.1-0.1-0.1-0.2-0.1-0.3c-0.1,0-0.2,0-0.3-0.1c-0.1,0-0.2-0.1-0.3-0.2c-0.1-0.1-0.1-0.1-0.2-0.2c-0.1-0.1-0.1-0.2-0.1-0.2
			c0-0.1,0-0.2-0.1-0.3s0-0.2,0-0.3c0-0.1,0-0.2,0.1-0.2c0-0.1,0.1-0.1,0.1-0.2c0-0.1,0.1-0.1,0.1-0.1c0,0,0-0.1,0.1-0.1
			c0.1-0.1,0.2-0.2,0.4-0.3s0.3-0.2,0.4-0.2c0.1-0.1,0.3-0.1,0.5-0.2c0.2,0,0.3-0.1,0.4-0.1c0.1,0,0.3-0.1,0.4-0.1
			c0.1,0,0.2,0,0.3,0l0-0.3L55.2,104.5z M53.8,107.9c0.1,0,0.1,0,0.2,0c0.1,0,0.1-0.1,0.2-0.1c0.1-0.1,0.1-0.2,0.2-0.3
			c0.1-0.1,0.1-0.2,0.1-0.3c0-0.1,0.1-0.2,0.1-0.4c0-0.1,0-0.3,0-0.4c0-0.1,0-0.3,0-0.4c0-0.1,0-0.3,0-0.4c-0.1,0-0.2,0-0.3,0
			c-0.1,0-0.2,0-0.4,0.1c-0.1,0-0.2,0.1-0.4,0.1c-0.1,0-0.3,0.1-0.4,0.1c-0.1,0.1-0.2,0.1-0.3,0.2c-0.1,0.1-0.2,0.2-0.3,0.2
			c0,0-0.1,0.1-0.1,0.2c0,0.1,0,0.1,0,0.2c0,0.1,0,0.1,0,0.2c0,0.1,0,0.1,0.1,0.1c0,0,0.1,0,0.1,0.1c0,0,0.1,0,0.1,0
			c0,0,0.1,0,0.1,0c0,0,0.1-0.1,0.1-0.1c0,0,0.1-0.1,0.1-0.1c0,0,0.1-0.1,0.1-0.1l0.6,0.3c0,0,0,0,0,0c0,0,0,0,0,0c0,0,0,0-0.1,0.1
			c0,0-0.1,0.1-0.1,0.1l0,0c0,0,0,0-0.1,0.1c0,0-0.1,0.1-0.1,0.1c0,0.1,0,0.1,0,0.2c0,0.1,0.1,0.1,0.1,0.1c0,0,0.1,0,0.1,0.1
			C53.7,107.8,53.7,107.9,53.8,107.9z"/>
		<path class="st1" d="M59.3,108c0,0,0,0.1,0,0.1c0,0.1-0.1,0.1-0.1,0.2s-0.1,0.2-0.1,0.3c0,0.1-0.1,0.2-0.2,0.2
			c-0.1,0.2-0.2,0.3-0.4,0.3c-0.1,0.1-0.3,0.1-0.4,0.1c-0.1,0-0.3,0-0.4,0c-0.1,0-0.2-0.1-0.3-0.2c-0.1-0.1-0.2-0.2-0.2-0.2
			c-0.1-0.1-0.1-0.2-0.2-0.3c-0.1,0.1-0.2,0.3-0.3,0.4c-0.1,0.1-0.2,0.3-0.3,0.4c-0.1,0.1-0.2,0.3-0.3,0.5c-0.1,0.2-0.3,0.3-0.4,0.5
			l-0.5-0.4l0.4-0.5c0.1-0.2,0.3-0.4,0.4-0.6c0.1-0.2,0.3-0.4,0.4-0.6c0.1-0.2,0.3-0.5,0.4-0.7s0.2-0.6,0.3-0.9l0.6,0.2l-0.1,0.3
			c0,0,0,0.1,0,0.1c0,0.1,0,0.1-0.1,0.2c0,0.1,0,0.2,0,0.3c0,0.1,0,0.2,0,0.3c0,0.1,0,0.2,0.1,0.3c0,0.1,0.1,0.1,0.2,0.2
			c0,0,0,0,0.1,0c0,0,0.1,0,0.1,0c0,0,0.1,0,0.2,0s0.1-0.1,0.2-0.2c0,0,0.1-0.1,0.1-0.2c0-0.1,0.1-0.1,0.1-0.2s0-0.1,0.1-0.2
			c0-0.1,0-0.1,0-0.1L59.3,108z"/>
		<path class="st1" d="M61.3,113.9c-0.2-0.1-0.3-0.2-0.4-0.3c-0.1-0.1-0.2-0.2-0.3-0.3c-0.1-0.1-0.1-0.2-0.1-0.3c0-0.1,0-0.2,0-0.3
			c0-0.1,0.1-0.2,0.1-0.3s0.1-0.2,0.2-0.4l1.3-2.3l0.6,0.3l-1.3,2.3c-0.1,0.1-0.1,0.2-0.2,0.3c0,0.1,0,0.2,0,0.2
			c0,0.1,0.1,0.1,0.1,0.2s0.2,0.1,0.3,0.2L61.3,113.9z"/>
		<path class="st1" d="M63.7,112.5c0.2,0.1,0.3,0.2,0.4,0.3c0.1,0.1,0.2,0.3,0.2,0.4s0,0.3,0,0.5c0,0.2-0.1,0.3-0.1,0.5
			c0,0.1-0.1,0.2,0,0.2s0,0.1,0.1,0.2c0,0,0.1,0.1,0.1,0.1c0,0,0.1,0,0.1,0.1l0.1,0l-0.3,0.6l-0.1,0c-0.1-0.1-0.2-0.1-0.3-0.2
			c-0.1-0.1-0.1-0.2-0.2-0.3c-0.1,0-0.2,0.1-0.2,0.1s-0.2,0-0.2,0c-0.1,0-0.1,0-0.2,0c-0.1,0-0.1,0-0.1-0.1c-0.1,0-0.2-0.1-0.2-0.1
			s-0.1-0.1-0.2-0.2c-0.1-0.1-0.1-0.1-0.2-0.2s-0.1-0.2-0.2-0.3c-0.1,0-0.2,0.1-0.3,0.1c-0.1,0-0.2,0-0.3-0.1l-0.3-0.1l0.3-0.6
			l0.3,0.1c0,0,0.1,0,0.1,0s0.1,0,0.1-0.1c0,0,0.1-0.1,0.1-0.1c0,0,0.1-0.1,0.1-0.2c0.1-0.1,0.2-0.2,0.3-0.3s0.2-0.2,0.3-0.3
			c0.1-0.1,0.3-0.1,0.4-0.1S63.6,112.4,63.7,112.5z M63.2,114.3C63.2,114.3,63.2,114.3,63.2,114.3c0.1,0,0.1,0,0.2,0
			c0,0,0.1,0,0.2-0.1c0.1,0,0.1-0.1,0.2-0.2c0,0,0-0.1,0.1-0.2c0-0.1,0-0.2,0-0.2s0-0.2-0.1-0.2c0-0.1-0.1-0.1-0.2-0.2
			c-0.1,0-0.2,0-0.2,0c-0.1,0-0.2,0.1-0.2,0.1s-0.1,0.1-0.2,0.2c-0.1,0.1-0.1,0.1-0.2,0.2c0,0.1,0.1,0.1,0.1,0.2
			c0.1,0.1,0.1,0.1,0.2,0.2c0.1,0.1,0.1,0.1,0.2,0.2C63.1,114.2,63.1,114.2,63.2,114.3z"/>
		<path class="st1" d="M64,116.9l-0.3-0.6l0.6-0.3l0.3,0.6L64,116.9z M66.9,115.7l-0.3,0.6l-0.4-0.2c-0.1-0.1-0.3-0.1-0.4-0.2
			c-0.1-0.1-0.2-0.2-0.2-0.3c-0.1,0-0.3,0.1-0.4,0c-0.1,0-0.3-0.1-0.5-0.1l-0.9-0.4l0.3-0.6l0.9,0.4c0.1,0,0.2,0.1,0.3,0.1
			s0.1,0,0.2,0c0,0,0.1,0,0.1-0.1c0,0,0-0.1,0.1-0.1l0.3-0.8l0.6,0.3l-0.3,0.8c0,0.1,0,0.1,0,0.2c0,0.1,0,0.1,0.1,0.1
			c0,0,0.1,0.1,0.1,0.1c0,0,0.1,0,0.1,0L66.9,115.7z M65,117.3l-0.3-0.6l0.6-0.3l0.3,0.6L65,117.3z"/>
		<path class="st1" d="M66.2,117.1l0.6-0.3l0.3,0.6l-0.6,0.3L66.2,117.1z M69,114.7C69,114.7,69,114.7,69,114.7c0,0.1,0,0.2,0,0.3
			c0,0.1,0,0.1,0,0.2c0,0.1,0,0.2,0,0.3c0,0.1,0,0.2,0,0.2c0,0.1,0,0.1-0.1,0.2c-0.1,0.2-0.1,0.3-0.2,0.4s-0.2,0.2-0.3,0.2
			c-0.1,0.1-0.3,0.1-0.4,0.1c-0.1,0-0.3,0-0.4-0.1l-1.1-0.4l0.2-0.6l1.1,0.4c0,0,0.1,0,0.1,0s0.1,0,0.1,0s0.1,0,0.1-0.1
			c0,0,0.1-0.1,0.1-0.2c0,0,0-0.1,0-0.1c0-0.1,0-0.1,0-0.2c0-0.1,0-0.1,0-0.2c0-0.1,0-0.1,0-0.2c0-0.1,0-0.1,0-0.2
			c0-0.1,0-0.1,0-0.1L69,114.7z M66.5,118l0.5-0.3l0.3,0.6l-0.5,0.3L66.5,118z M67.3,117.5l0.6-0.3l0.3,0.6l-0.6,0.3L67.3,117.5z"/>
		<path class="st1" d="M72.9,118.1l-0.1,0c-0.1,0-0.1,0-0.2-0.1c-0.1,0-0.1-0.1-0.2-0.1c-0.1,0.2-0.2,0.4-0.3,0.6s-0.3,0.3-0.4,0.4
			c-0.2,0.1-0.4,0.2-0.6,0.2c-0.2,0-0.4,0-0.7,0l-0.3-0.1l0.2-0.7l0.3,0.1c0.2,0,0.3,0.1,0.5,0c0.1,0,0.2,0,0.3-0.1s0.2-0.1,0.2-0.3
			c0.1-0.1,0.1-0.3,0.2-0.4l0.4-1.6l0.7,0.2l-0.2,0.8c0,0.1,0,0.2,0,0.2s0.1,0.1,0.1,0.1c0,0,0.1,0.1,0.1,0.1c0,0,0.1,0,0.1,0l0.1,0
			L72.9,118.1z"/>
		<path class="st1" d="M72.9,119.6l-0.4-0.5l0.5-0.4l0.4,0.5L72.9,119.6z M75,116.1C75,116.1,75,116.1,75,116.1c0,0.1,0,0.2,0,0.3
			c0,0.1,0,0.1,0,0.2c0,0.1,0,0.2,0,0.3c0,0.1,0,0.2,0,0.2c0,0.1,0,0.2,0,0.2c0,0.2-0.1,0.3-0.2,0.5c-0.1,0.1-0.2,0.2-0.3,0.3
			s-0.2,0.1-0.4,0.1c-0.1,0-0.3,0-0.4,0l-1.2-0.2l0.1-0.7l1.2,0.2c0,0,0.1,0,0.1,0c0,0,0.1,0,0.1,0c0,0,0.1-0.1,0.1-0.1
			c0,0,0.1-0.1,0.1-0.2c0,0,0-0.1,0-0.1c0-0.1,0-0.1,0-0.2c0-0.1,0-0.1,0-0.2c0-0.1,0-0.1,0-0.2c0-0.1,0-0.1,0-0.2
			c0-0.1,0-0.1,0-0.1L75,116.1z M74,119.8l-0.4-0.5l0.5-0.4l0.4,0.5L74,119.8z"/>
		<path class="st1" d="M75.4,119.3c0.1,0,0.3,0,0.4,0c0.1,0,0.2,0,0.3,0c0.1,0,0.2,0,0.2,0c0.1,0,0.1-0.1,0.2-0.1
			c0.1-0.1,0.1-0.1,0.2-0.2c0-0.1,0.1-0.2,0.1-0.3l-0.4,0c-0.1,0-0.2,0-0.3-0.1c-0.1,0-0.2-0.1-0.3-0.1c-0.1,0-0.2-0.1-0.2-0.2
			c-0.1-0.1-0.1-0.1-0.2-0.2s-0.1-0.2-0.1-0.3c0-0.1,0-0.2,0-0.4c0-0.1,0-0.2,0.1-0.3c0-0.1,0.1-0.2,0.1-0.2c0-0.1,0.1-0.1,0.1-0.2
			s0.1-0.1,0.1-0.1c0.1-0.1,0.3-0.2,0.4-0.2c0.1,0,0.3-0.1,0.5,0c0.2,0,0.4,0.1,0.5,0.2c0.1,0.1,0.2,0.2,0.3,0.3
			c0.1,0.1,0.1,0.3,0.1,0.4c0,0.2,0,0.3,0,0.5l0,0.4l0.5,0.1l-0.1,0.7l-0.5-0.1c0,0.2-0.1,0.5-0.2,0.6c-0.1,0.2-0.2,0.3-0.4,0.4
			c-0.1,0.1-0.2,0.1-0.3,0.1c-0.1,0-0.2,0.1-0.3,0.1c-0.1,0-0.3,0-0.4,0c-0.2,0-0.3,0-0.5,0L75.4,119.3z M76.6,116.9
			c-0.2,0-0.3,0-0.4,0.1c-0.1,0.1-0.2,0.2-0.2,0.4c0,0.1,0,0.1,0,0.2c0,0.1,0.1,0.1,0.1,0.2s0.1,0.1,0.2,0.1s0.1,0,0.2,0l0.4,0
			l0-0.4c0-0.1,0-0.2,0-0.3c0-0.1,0-0.1,0-0.2c0-0.1,0-0.1-0.1-0.1c0,0-0.1-0.1-0.1-0.1C76.7,116.9,76.6,116.9,76.6,116.9
			C76.6,116.9,76.6,116.9,76.6,116.9z"/>
		<path class="st1" d="M77.6,118.7l0-0.7l1.6,0.1c0,0,0.1,0,0.1,0s0.1,0,0.2,0c0,0,0.1,0,0.1,0s0.1-0.1,0.1-0.1c0-0.1,0-0.2-0.1-0.3
			c-0.1-0.1-0.1-0.2-0.2-0.4c-0.1-0.1-0.2-0.3-0.3-0.4c-0.1-0.1-0.2-0.3-0.3-0.4c-0.1-0.1-0.2-0.2-0.3-0.3c-0.1-0.1-0.2-0.2-0.2-0.2
			l0.1-0.6l2.4-1l0.2,0.6l-2,0.8c0.1,0.1,0.1,0.1,0.2,0.2c0.1,0.1,0.2,0.2,0.3,0.3c0.1,0.1,0.2,0.2,0.3,0.3c0.1,0.1,0.2,0.2,0.2,0.3
			c0.1,0.1,0.1,0.2,0.2,0.3s0.1,0.2,0.1,0.3c0,0.1,0,0.2,0.1,0.2c0,0.1,0,0.1,0,0.2c0,0.1,0,0.1,0,0.2c0,0.1,0,0.1-0.1,0.1
			c0,0-0.1,0.1-0.1,0.2c0,0.1-0.1,0.1-0.2,0.2s-0.2,0.1-0.3,0.1c-0.1,0-0.3,0-0.4,0L77.6,118.7z"/>
		<path class="st1" d="M90.2,118c-0.4,0-0.7,0-0.9-0.2c-0.1,0.1-0.2,0.2-0.3,0.2c-0.1,0.1-0.2,0.1-0.4,0.1c-0.3,0-0.6,0-0.8-0.2
			c-0.1,0.1-0.2,0.2-0.3,0.2c-0.1,0.1-0.2,0.1-0.4,0.1c-0.1,0-0.2,0-0.3,0s-0.2,0-0.2,0l0,0.1c0.1,0.5,0,0.9-0.3,1.2
			c-0.2,0.3-0.6,0.4-1.1,0.5l-0.6,0.1c-0.1,0-0.3,0-0.4,0c-0.1,0-0.3-0.1-0.4-0.1c-0.1,0-0.2-0.1-0.4-0.2c-0.1-0.1-0.2-0.2-0.3-0.3
			c-0.1-0.1-0.2-0.3-0.3-0.4c-0.1-0.2-0.1-0.3-0.1-0.5c0-0.1,0-0.2,0-0.4c0-0.1,0-0.2,0-0.4c0-0.1,0-0.3,0.1-0.4
			c0-0.1,0.1-0.3,0.1-0.5l0.6,0.2c0,0.1-0.1,0.3-0.1,0.4c0,0.1-0.1,0.2-0.1,0.3c0,0.1,0,0.2,0,0.3c0,0.1,0,0.2,0,0.3
			c0,0.1,0,0.2,0.1,0.3c0,0.1,0.1,0.2,0.2,0.3c0.1,0.1,0.2,0.2,0.4,0.3c0.2,0.1,0.3,0.1,0.5,0.1l0.6-0.1c0.2,0,0.3-0.1,0.5-0.1
			c0.1-0.1,0.2-0.1,0.3-0.2c0.1-0.1,0.1-0.2,0.1-0.3c0-0.1,0-0.2,0-0.3l-0.2-1.9l0.7-0.1l0.1,0.5c0,0.2,0,0.3,0.1,0.4
			c0,0.1,0.1,0.1,0.1,0.2c0.1,0,0.1,0.1,0.2,0.1c0.1,0,0.1,0,0.2,0c0,0,0.1,0,0.1,0s0.1,0,0.1-0.1s0.1-0.1,0.1-0.1
			c0-0.1,0-0.1,0-0.2l-0.1-0.8l0.7-0.1l0.1,0.8c0,0.1,0.1,0.2,0.2,0.3c0.1,0.1,0.2,0.1,0.4,0.1c0,0,0.1,0,0.1,0c0,0,0.1,0,0.1-0.1
			c0,0,0.1-0.1,0.1-0.1c0-0.1,0-0.1,0-0.2l-0.1-0.8l0.7-0.1l0.1,0.8c0,0.1,0.1,0.2,0.2,0.3c0.1,0.1,0.2,0.1,0.4,0l0.2,0l0.1,0.7
			L90.2,118z M87.4,115.4l-0.4,0.5l-0.5-0.4l0.4-0.5L87.4,115.4z M87.8,114.5l-0.4,0.5l-0.5-0.4l0.4-0.5L87.8,114.5z M88.5,115.2
			l-0.4,0.5l-0.5-0.4l0.4-0.5L88.5,115.2z"/>
		<path class="st1" d="M91.3,115.2C91.3,115.2,91.4,115.3,91.3,115.2c0.1,0.1,0.1,0.2,0.1,0.2c0,0.1,0.1,0.1,0.1,0.2
			c0,0.1,0.1,0.2,0.1,0.2c0,0.1,0.1,0.2,0.1,0.2c0,0.1,0,0.1,0.1,0.2c0,0.2,0.1,0.3,0,0.5c0,0.1-0.1,0.3-0.2,0.4
			c-0.1,0.1-0.2,0.2-0.3,0.3c-0.1,0.1-0.2,0.1-0.3,0.2l-1.1,0.3l-0.2-0.7l1.2-0.3c0,0,0.1,0,0.1,0c0,0,0.1,0,0.1-0.1
			c0,0,0.1-0.1,0.1-0.1c0-0.1,0-0.1,0-0.2c0,0,0-0.1,0-0.1c0-0.1,0-0.1-0.1-0.2c0-0.1-0.1-0.1-0.1-0.2s-0.1-0.1-0.1-0.2
			s-0.1-0.1-0.1-0.2c0,0,0-0.1-0.1-0.1L91.3,115.2z M90.8,119.2l-0.6-0.3l0.3-0.6l0.6,0.3L90.8,119.2z M91.9,119l-0.6-0.3l0.3-0.6
			l0.6,0.3L91.9,119z"/>
		<path class="st1" d="M95.3,116.4l-0.2,0.1c-0.2,0.1-0.5,0-0.8-0.1c0,0.1-0.1,0.2-0.2,0.2c-0.1,0.1-0.1,0.1-0.2,0.2
			c-0.1,0.1-0.2,0.1-0.3,0.1c-0.1,0-0.2,0.1-0.3,0.1c-0.1,0-0.1,0-0.2,0c-0.1,0-0.2,0-0.2,0s-0.2,0-0.3,0c-0.1,0-0.3,0-0.4,0l0-0.7
			c0.1,0,0.2,0,0.4,0c0.1,0,0.2,0,0.4,0c0.1,0,0.2,0,0.3-0.1c0,0,0.1,0,0.1,0c0.1,0,0.1,0,0.2-0.1s0.1-0.1,0.2-0.1s0.1-0.1,0.1-0.2
			c0,0,0,0,0-0.1c0,0,0,0,0-0.1c0,0,0,0-0.1-0.1c0,0-0.1-0.1-0.1-0.1l-1.3-1l0.4-0.5l1.4,1.1c0.1,0.1,0.2,0.1,0.2,0.2
			c0.1,0.1,0.2,0.1,0.2,0.2c0.1,0,0.1,0.1,0.2,0.1c0.1,0,0.1,0,0.2,0l0.2-0.1L95.3,116.4z"/>
		<path class="st1" d="M94.3,113.1l0.3-0.6l0.6,0.3l-0.3,0.6L94.3,113.1z M95.7,113.8C95.7,113.8,95.7,113.8,95.7,113.8
			c0.1,0.1,0.1,0.2,0.1,0.2c0,0.1,0.1,0.1,0.1,0.2c0,0.1,0.1,0.1,0.1,0.2c0,0.1,0.1,0.1,0.1,0.2c0,0.1,0.1,0.1,0.1,0.2
			c0.1,0.2,0.1,0.3,0.1,0.5c0,0.1,0,0.3-0.1,0.4c-0.1,0.1-0.1,0.2-0.2,0.3c-0.1,0.1-0.2,0.1-0.3,0.2l-0.7,0.3l-0.2-0.6l0.7-0.3
			c0,0,0,0,0.1,0c0,0,0.1,0,0.1-0.1c0,0,0-0.1,0.1-0.2c0-0.1,0-0.1,0-0.2c0,0,0-0.1-0.1-0.1c0-0.1-0.1-0.1-0.1-0.2
			c0-0.1-0.1-0.1-0.1-0.2c0-0.1-0.1-0.1-0.1-0.2c0-0.1-0.1-0.1-0.1-0.1c0,0-0.1-0.1-0.1-0.1L95.7,113.8z"/>
		<path class="st1" d="M97.8,115.4l-0.6,0.3l-1.5-3.6l0.6-0.3L97.8,115.4z"/>
		<path class="st1" d="M99.6,111.2l0.2-0.7l0.7,0.2l-0.2,0.7L99.6,111.2z M101.7,113.3c0.1,0.2,0.2,0.4,0.2,0.7s0,0.4-0.1,0.6
			c-0.1,0.2-0.2,0.4-0.3,0.5c-0.1,0.2-0.3,0.3-0.6,0.4l-0.3,0.2l-0.3-0.6l0.3-0.2c0.2-0.1,0.3-0.2,0.4-0.3s0.2-0.2,0.2-0.3
			c0-0.1,0-0.2,0-0.4s-0.1-0.3-0.2-0.4l-0.8-1.5l0.6-0.3L101.7,113.3z"/>
		<path class="st1" d="M102.8,113.8c0.1-0.1,0.2-0.1,0.3-0.2c0.1-0.1,0.2-0.1,0.2-0.2c0.1-0.1,0.1-0.1,0.2-0.2
			c0-0.1,0.1-0.1,0.1-0.2c0-0.1,0-0.2,0-0.3c0-0.1,0-0.2-0.1-0.3l-0.4,0.2c-0.1,0-0.2,0.1-0.2,0.1c-0.1,0-0.2,0.1-0.3,0.1
			c-0.1,0-0.2,0-0.3,0c-0.1,0-0.2,0-0.3-0.1s-0.2-0.1-0.3-0.2c-0.1-0.1-0.2-0.2-0.2-0.3c-0.1-0.1-0.1-0.2-0.1-0.3
			c0-0.1-0.1-0.2-0.1-0.3s0-0.2,0-0.2c0-0.1,0-0.1,0-0.2c0-0.1,0.1-0.3,0.2-0.4c0.1-0.1,0.2-0.2,0.3-0.3c0.2-0.1,0.3-0.2,0.5-0.2
			c0.2,0,0.3,0,0.4,0.1c0.1,0.1,0.3,0.1,0.4,0.3s0.2,0.3,0.3,0.4l0.5,0.8c0.1,0.2,0.2,0.4,0.2,0.6c0,0.2,0,0.4-0.1,0.6
			c0,0.1-0.1,0.2-0.1,0.3c-0.1,0.1-0.1,0.2-0.2,0.3c-0.1,0.1-0.2,0.2-0.3,0.3c-0.1,0.1-0.3,0.2-0.4,0.3L102.8,113.8z M102.2,111.2
			c-0.1,0.1-0.2,0.2-0.2,0.3c0,0.1,0,0.3,0.1,0.5c0,0.1,0.1,0.1,0.1,0.2c0.1,0,0.1,0,0.2,0.1s0.1,0,0.2,0s0.1,0,0.2-0.1l0.4-0.2
			l-0.2-0.3c-0.1-0.1-0.1-0.2-0.2-0.2s-0.1-0.1-0.2-0.1c0,0-0.1,0-0.1-0.1c0,0-0.1,0-0.1,0C102.3,111.2,102.3,111.2,102.2,111.2
			C102.3,111.2,102.2,111.2,102.2,111.2z"/>
		<path class="st1" d="M105.8,110.7c0.1,0.2,0.2,0.4,0.3,0.6c0,0.2,0,0.4,0,0.6c0,0.2-0.1,0.4-0.2,0.6c-0.1,0.2-0.3,0.3-0.5,0.5
			l-0.3,0.2l-0.4-0.6l0.3-0.2c0.1-0.1,0.3-0.2,0.3-0.3c0.1-0.1,0.1-0.2,0.2-0.3c0-0.1,0-0.2,0-0.4c0-0.1-0.1-0.3-0.2-0.4l-0.9-1.4
			l0.6-0.4L105.8,110.7z"/>
		<path class="st1" d="M110.3,104.6l0.5,0.6c0,0,0.1,0.1,0.1,0.1c0,0,0.1,0,0.1,0c0,0,0.1,0,0.1,0c0,0,0.1,0,0.1,0c0,0,0.1,0,0.1,0
			c0,0,0,0,0,0l0.1-0.1l0.5,0.5l-0.1,0.1c0,0-0.1,0.1-0.2,0.1c-0.1,0-0.1,0.1-0.2,0.1c-0.1,0-0.1,0.1-0.2,0.1c-0.1,0-0.1,0-0.2,0
			c0,0.3-0.2,0.5-0.4,0.7l-2.3,2.1c-0.1,0.1-0.2,0.2-0.3,0.2c-0.1,0-0.2,0.1-0.4,0.1c0,0-0.1,0-0.2,0c-0.1,0-0.1,0-0.2-0.1
			c-0.1,0-0.1-0.1-0.2-0.1c-0.1,0-0.1-0.1-0.2-0.2c-0.1-0.1-0.1-0.1-0.2-0.2c-0.1-0.1-0.1-0.2-0.2-0.3c0-0.1-0.1-0.2-0.1-0.2
			c0-0.1-0.1-0.1-0.1-0.1l0.3-0.1l0.3-0.1c0,0,0,0.1,0.1,0.2c0,0.1,0.1,0.1,0.1,0.2c0,0.1,0.1,0.1,0.1,0.2c0,0.1,0.1,0.1,0.1,0.1
			c0.1,0.1,0.1,0.1,0.2,0.1c0.1,0,0.1,0,0.1,0c0,0,0.1,0,0.1,0c0,0,0.1,0,0.1-0.1l2.3-2.1c0.1-0.1,0.1-0.1,0.2-0.2
			c0-0.1,0.1-0.1,0.1-0.2c0-0.1,0-0.1-0.1-0.2l-0.6-0.7L110.3,104.6z M107.7,106.7l-0.7,0l0-0.6l0.7,0L107.7,106.7z M108.6,105.9
			l-0.7,0l0-0.7l0.7,0L108.6,105.9z"/>
		<path class="st1" d="M111.7,105.8l-0.5-0.5l1.1-1.2c0,0,0-0.1,0.1-0.1c0,0,0.1-0.1,0.1-0.1c0,0,0-0.1,0-0.1c0,0,0-0.1,0-0.1
			c-0.1-0.1-0.1-0.1-0.3-0.1c-0.1,0-0.3-0.1-0.4-0.1c-0.2,0-0.3,0-0.5,0c-0.2,0-0.3,0-0.5,0s-0.3,0-0.4,0c-0.1,0-0.2,0-0.3,0
			l-0.4-0.5l0.8-2.5l0.6,0.2l-0.7,2.1c0.1,0,0.2,0,0.3,0s0.2,0,0.4,0s0.3,0,0.4,0c0.1,0,0.3,0,0.4,0c0.1,0,0.3,0,0.4,0
			c0.1,0,0.2,0,0.3,0.1c0.1,0,0.1,0.1,0.2,0.1c0.1,0,0.1,0.1,0.2,0.1c0.1,0,0.1,0.1,0.1,0.1c0,0,0.1,0.1,0.1,0.1c0,0,0,0.1,0.1,0.2
			s0,0.2,0,0.3c0,0.1,0,0.2-0.1,0.3s-0.1,0.2-0.3,0.4L111.7,105.8z"/>
		<path class="st1" d="M115.2,101.6L115.2,101.6c-0.1,0.1-0.2,0.2-0.2,0.2c0,0-0.1,0.1-0.2,0.1c0.2,0.2,0.3,0.3,0.4,0.5
			c0.1,0.2,0.2,0.4,0.2,0.6c0,0.2,0,0.4-0.1,0.6c-0.1,0.2-0.2,0.4-0.3,0.6l-0.2,0.3l-0.5-0.4l0.2-0.3c0.1-0.1,0.2-0.3,0.2-0.4
			c0-0.1,0.1-0.2,0.1-0.4s-0.1-0.2-0.1-0.3c-0.1-0.1-0.2-0.2-0.3-0.3l-1.3-1l0.4-0.5l0.6,0.5c0.1,0.1,0.1,0.1,0.2,0.1s0.1,0,0.2,0
			c0.1,0,0.1,0,0.1-0.1c0,0,0.1,0,0.1-0.1l0.1-0.1L115.2,101.6z"/>
		<path class="st1" d="M113.7,97l0.1,0.6l-0.6,0.1l-0.1-0.6L113.7,97z M114,97.9l0.1,0.6l-0.6,0.1l-0.1-0.6L114,97.9z M114.6,96.9
			l0.1,0.6l-0.6,0.1l-0.1-0.7L114.6,96.9z M116.2,100.1c-0.2,0.3-0.4,0.5-0.7,0.5c0,0.1,0,0.3,0,0.4c0,0.1-0.1,0.2-0.2,0.3l-0.3,0.5
			l-0.6-0.4l0.3-0.5c0,0,0,0,0-0.1c0,0,0-0.1,0-0.1c0,0,0-0.1,0-0.2c0-0.1-0.1-0.1-0.2-0.2L114,100l0.4-0.6l0.6,0.4
			c0.1,0.1,0.2,0.1,0.3,0.1c0.1,0,0.2-0.1,0.3-0.2c0,0,0,0,0-0.1c0,0,0-0.1,0-0.1c0-0.1,0-0.1,0-0.2c0-0.1-0.1-0.1-0.2-0.2l-0.6-0.4
			l0.4-0.6l0.6,0.4c0.1,0.1,0.2,0.1,0.3,0.1s0.2-0.1,0.3-0.2c0,0,0,0,0-0.1c0,0,0-0.1,0-0.1c0-0.1,0-0.1-0.1-0.2
			c0-0.1-0.1-0.1-0.2-0.2c0,0-0.1,0-0.1-0.1c-0.1,0-0.1-0.1-0.2-0.1c-0.1,0-0.1-0.1-0.2-0.1c-0.1,0-0.1,0-0.2-0.1s-0.1,0-0.2-0.1
			c0,0-0.1,0-0.1,0l0.2-0.7c0,0,0,0,0.1,0c0,0,0.1,0,0.2,0.1c0.1,0,0.1,0.1,0.2,0.1c0.1,0,0.2,0.1,0.2,0.1c0.1,0,0.2,0.1,0.2,0.1
			s0.1,0.1,0.2,0.1c0.2,0.1,0.3,0.2,0.4,0.3c0.1,0.1,0.1,0.3,0.2,0.4c0,0.1,0,0.3,0,0.4c0,0.1-0.1,0.2-0.1,0.4
			c-0.2,0.3-0.4,0.5-0.7,0.5c0,0.1,0,0.3,0,0.4C116.4,99.9,116.3,100,116.2,100.1z"/>
	</g>
	<g class="st6">
		<path class="st1" d="M44.3,97.5C44.4,97.5,44.4,97.4,44.3,97.5c0.1-0.1,0.2-0.1,0.2-0.1c0,0,0.1,0,0.1-0.1c0,0,0.1,0,0.1-0.1l0,0
			c0.1,0,0.2-0.1,0.2-0.1c0.1,0,0.2-0.1,0.3-0.1c0.2-0.1,0.4-0.2,0.5-0.3c0.2-0.1,0.4-0.2,0.6-0.4s0.4-0.3,0.6-0.4
			c0.2-0.2,0.4-0.3,0.6-0.6l0.5,0.4c-0.2,0.2-0.4,0.4-0.6,0.6c-0.2,0.2-0.4,0.3-0.6,0.5c-0.2,0.1-0.4,0.3-0.6,0.4s-0.4,0.2-0.6,0.3
			c-0.1,0.1-0.2,0.1-0.3,0.1c-0.1,0-0.2,0.1-0.2,0.1c0,0-0.1,0-0.1,0.1c0,0-0.1,0-0.1,0.1c0,0-0.1,0-0.1,0.1c0,0-0.1,0-0.1,0.1
			L44.3,97.5z"/>
		<path class="st1" d="M50.7,99.9c0,0-0.1,0.1-0.1,0.2c-0.1,0.1-0.1,0.1-0.2,0.2c-0.1,0.1-0.1,0.1-0.2,0.2c-0.1,0.1-0.1,0.1-0.2,0.2
			c-0.1,0.1-0.2,0.1-0.3,0.2c-0.1,0-0.2,0.1-0.4,0.1c-0.1,0-0.2,0-0.3-0.1c-0.1-0.1-0.2-0.1-0.3-0.3c0,0-0.1-0.1-0.1-0.2
			s0-0.1-0.1-0.2c0-0.1,0-0.1,0-0.2c0-0.1,0-0.2,0-0.2c-0.1,0-0.3,0-0.4-0.1c-0.1-0.1-0.2-0.1-0.3-0.2l0,0c0,0,0,0-0.1-0.1
			s0-0.1-0.1-0.1c0,0,0-0.1-0.1-0.1c0,0,0-0.1,0-0.1c-0.2,0.2-0.4,0.3-0.6,0.5s-0.4,0.3-0.5,0.4l-0.5,0.3l-0.4-0.6l0.4-0.3
			c0.2-0.1,0.4-0.3,0.6-0.4c0.2-0.2,0.4-0.3,0.7-0.5c0.2-0.2,0.4-0.4,0.6-0.6c0.2-0.2,0.4-0.4,0.6-0.7l0.5,0.4c0,0-0.1,0.1-0.1,0.1
			c0,0-0.1,0.1-0.1,0.1c0,0-0.1,0.1-0.1,0.1c0,0-0.1,0.1-0.1,0.2c0,0.1-0.1,0.1-0.1,0.2c0,0.1-0.1,0.1-0.1,0.2c0,0.1,0,0.1,0,0.2
			s0,0.1,0,0.2c0,0,0.1,0.1,0.1,0.1c0,0,0.1,0,0.2,0c0.1,0,0.1,0,0.2-0.1c0.1,0,0.2-0.1,0.3-0.2c0,0,0.1,0,0.1-0.1
			c0,0,0.1,0,0.1-0.1c0,0,0.1,0,0.1-0.1c0,0,0.1-0.1,0.1-0.1l0.4,0.5c-0.2,0.1-0.3,0.3-0.4,0.4c-0.1,0.1-0.2,0.2-0.3,0.3
			c-0.1,0.1-0.1,0.2-0.1,0.2c0,0.1,0,0.1,0.1,0.2c0,0,0.1,0.1,0.2,0.1c0.1,0,0.1,0,0.2-0.1c0.1,0,0.1-0.1,0.2-0.1s0.1-0.1,0.2-0.2
			c0.1-0.1,0.1-0.1,0.1-0.1c0,0,0.1-0.1,0.1-0.1L50.7,99.9z"/>
		<path class="st1" d="M52.3,101.5c0,0,0,0.1,0,0.1c0,0.1,0,0.2,0,0.3c0,0.1,0,0.3,0,0.4c0,0.2,0,0.3,0,0.5c0,0.2-0.1,0.4-0.1,0.6
			c0,0.2-0.1,0.4-0.2,0.6c-0.1,0.2-0.2,0.4-0.3,0.5s-0.2,0.3-0.4,0.4c-0.1,0.1-0.2,0.1-0.3,0.2c-0.1,0-0.2,0.1-0.3,0.1
			c-0.1,0-0.2,0-0.2,0c-0.1,0-0.1,0-0.2,0c-0.1,0-0.2-0.1-0.3-0.1s-0.2-0.1-0.3-0.2c-0.1-0.1-0.1-0.2-0.2-0.3s-0.1-0.2-0.1-0.3
			c-0.1,0-0.2-0.1-0.3-0.1c-0.1-0.1-0.2-0.1-0.3-0.2c-0.1-0.1-0.1-0.1-0.2-0.2c0-0.1-0.1-0.2-0.1-0.2c0-0.1,0-0.2,0-0.3
			c0-0.1,0-0.2,0-0.3c0-0.1,0.1-0.2,0.1-0.2c0-0.1,0.1-0.1,0.1-0.2c0,0,0.1-0.1,0.1-0.1c0,0,0.1-0.1,0.1-0.1
			c0.1-0.1,0.3-0.2,0.4-0.3s0.3-0.1,0.5-0.2c0.2-0.1,0.3-0.1,0.5-0.1c0.2,0,0.3,0,0.5-0.1c0.1,0,0.3,0,0.4,0c0.1,0,0.2,0,0.3,0
			l0-0.3L52.3,101.5z M50.5,104.7c0.1,0,0.1,0,0.2,0c0.1,0,0.1-0.1,0.2-0.1c0.1-0.1,0.2-0.2,0.2-0.3c0.1-0.1,0.1-0.2,0.2-0.3
			c0.1-0.1,0.1-0.2,0.1-0.4c0-0.1,0.1-0.3,0.1-0.4c0-0.1,0-0.3,0.1-0.4c0-0.1,0-0.3,0-0.4c-0.1,0-0.2,0-0.3,0c-0.1,0-0.2,0-0.4,0
			c-0.1,0-0.3,0-0.4,0.1c-0.1,0-0.3,0.1-0.4,0.1c-0.1,0-0.2,0.1-0.4,0.1s-0.2,0.1-0.3,0.2c0,0-0.1,0.1-0.1,0.1
			c0,0.1-0.1,0.1-0.1,0.2c0,0.1,0,0.1,0,0.2s0,0.1,0.1,0.2c0,0,0.1,0.1,0.1,0.1c0,0,0.1,0,0.1,0.1c0,0,0.1,0,0.1,0
			c0,0,0.1,0,0.1-0.1s0.1-0.1,0.1-0.1c0,0,0.1-0.1,0.1-0.1l0.5,0.4c0,0,0,0,0,0c0,0,0,0,0,0c0,0,0,0-0.1,0.1c0,0-0.1,0.1-0.1,0.1
			l0,0c0,0-0.1,0-0.1,0.1c0,0-0.1,0.1-0.1,0.1c0,0.1,0,0.1,0,0.2c0,0.1,0,0.1,0.1,0.2c0,0,0.1,0.1,0.1,0.1
			C50.5,104.7,50.5,104.7,50.5,104.7z"/>
		<path class="st1" d="M55.2,104.5c0,0,0,0.1,0,0.1s0,0.2,0,0.3s0,0.3,0,0.4c0,0.2,0,0.3,0,0.5c0,0.2,0,0.4,0,0.6
			c0,0.2-0.1,0.4-0.1,0.6c-0.1,0.2-0.1,0.4-0.2,0.6c-0.1,0.2-0.2,0.3-0.3,0.5c-0.1,0.1-0.2,0.2-0.3,0.2c-0.1,0.1-0.2,0.1-0.2,0.1
			c-0.1,0-0.2,0.1-0.2,0.1s-0.1,0-0.2,0c-0.1,0-0.2,0-0.3-0.1c-0.1,0-0.2-0.1-0.3-0.2c-0.1-0.1-0.2-0.2-0.2-0.3
			c-0.1-0.1-0.1-0.2-0.1-0.3c-0.1,0-0.2,0-0.3-0.1c-0.1,0-0.2-0.1-0.3-0.2c-0.1-0.1-0.1-0.1-0.2-0.2c-0.1-0.1-0.1-0.2-0.1-0.2
			c0-0.1,0-0.2-0.1-0.3s0-0.2,0-0.3c0-0.1,0-0.2,0.1-0.2c0-0.1,0.1-0.1,0.1-0.2c0-0.1,0.1-0.1,0.1-0.1c0,0,0-0.1,0.1-0.1
			c0.1-0.1,0.2-0.2,0.4-0.3s0.3-0.2,0.4-0.2c0.1-0.1,0.3-0.1,0.5-0.2c0.2,0,0.3-0.1,0.4-0.1c0.1,0,0.3-0.1,0.4-0.1
			c0.1,0,0.2,0,0.3,0l0-0.3L55.2,104.5z M53.8,107.9c0.1,0,0.1,0,0.2,0c0.1,0,0.1-0.1,0.2-0.1c0.1-0.1,0.1-0.2,0.2-0.3
			c0.1-0.1,0.1-0.2,0.1-0.3c0-0.1,0.1-0.2,0.1-0.4c0-0.1,0-0.3,0-0.4c0-0.1,0-0.3,0-0.4c0-0.1,0-0.3,0-0.4c-0.1,0-0.2,0-0.3,0
			c-0.1,0-0.2,0-0.4,0.1c-0.1,0-0.2,0.1-0.4,0.1c-0.1,0-0.3,0.1-0.4,0.1c-0.1,0.1-0.2,0.1-0.3,0.2c-0.1,0.1-0.2,0.2-0.3,0.2
			c0,0-0.1,0.1-0.1,0.2c0,0.1,0,0.1,0,0.2c0,0.1,0,0.1,0,0.2c0,0.1,0,0.1,0.1,0.1c0,0,0.1,0,0.1,0.1c0,0,0.1,0,0.1,0
			c0,0,0.1,0,0.1,0c0,0,0.1-0.1,0.1-0.1c0,0,0.1-0.1,0.1-0.1c0,0,0.1-0.1,0.1-0.1l0.6,0.3c0,0,0,0,0,0c0,0,0,0,0,0c0,0,0,0-0.1,0.1
			c0,0-0.1,0.1-0.1,0.1l0,0c0,0,0,0-0.1,0.1c0,0-0.1,0.1-0.1,0.1c0,0.1,0,0.1,0,0.2c0,0.1,0.1,0.1,0.1,0.1c0,0,0.1,0,0.1,0.1
			C53.7,107.8,53.7,107.9,53.8,107.9z"/>
		<path class="st1" d="M59.3,108c0,0,0,0.1,0,0.1c0,0.1-0.1,0.1-0.1,0.2s-0.1,0.2-0.1,0.3c0,0.1-0.1,0.2-0.2,0.2
			c-0.1,0.2-0.2,0.3-0.4,0.3c-0.1,0.1-0.3,0.1-0.4,0.1c-0.1,0-0.3,0-0.4,0c-0.1,0-0.2-0.1-0.3-0.2c-0.1-0.1-0.2-0.2-0.2-0.2
			c-0.1-0.1-0.1-0.2-0.2-0.3c-0.1,0.1-0.2,0.3-0.3,0.4c-0.1,0.1-0.2,0.3-0.3,0.4c-0.1,0.1-0.2,0.3-0.3,0.5c-0.1,0.2-0.3,0.3-0.4,0.5
			l-0.5-0.4l0.4-0.5c0.1-0.2,0.3-0.4,0.4-0.6c0.1-0.2,0.3-0.4,0.4-0.6c0.1-0.2,0.3-0.5,0.4-0.7s0.2-0.6,0.3-0.9l0.6,0.2l-0.1,0.3
			c0,0,0,0.1,0,0.1c0,0.1,0,0.1-0.1,0.2c0,0.1,0,0.2,0,0.3c0,0.1,0,0.2,0,0.3c0,0.1,0,0.2,0.1,0.3c0,0.1,0.1,0.1,0.2,0.2
			c0,0,0,0,0.1,0c0,0,0.1,0,0.1,0c0,0,0.1,0,0.2,0s0.1-0.1,0.2-0.2c0,0,0.1-0.1,0.1-0.2c0-0.1,0.1-0.1,0.1-0.2s0-0.1,0.1-0.2
			c0-0.1,0-0.1,0-0.1L59.3,108z"/>
		<path class="st1" d="M61.3,113.9c-0.2-0.1-0.3-0.2-0.4-0.3c-0.1-0.1-0.2-0.2-0.3-0.3c-0.1-0.1-0.1-0.2-0.1-0.3c0-0.1,0-0.2,0-0.3
			c0-0.1,0.1-0.2,0.1-0.3s0.1-0.2,0.2-0.4l1.3-2.3l0.6,0.3l-1.3,2.3c-0.1,0.1-0.1,0.2-0.2,0.3c0,0.1,0,0.2,0,0.2
			c0,0.1,0.1,0.1,0.1,0.2s0.2,0.1,0.3,0.2L61.3,113.9z"/>
		<path class="st1" d="M63.7,112.5c0.2,0.1,0.3,0.2,0.4,0.3c0.1,0.1,0.2,0.3,0.2,0.4s0,0.3,0,0.5c0,0.2-0.1,0.3-0.1,0.5
			c0,0.1-0.1,0.2,0,0.2s0,0.1,0.1,0.2c0,0,0.1,0.1,0.1,0.1c0,0,0.1,0,0.1,0.1l0.1,0l-0.3,0.6l-0.1,0c-0.1-0.1-0.2-0.1-0.3-0.2
			c-0.1-0.1-0.1-0.2-0.2-0.3c-0.1,0-0.2,0.1-0.2,0.1s-0.2,0-0.2,0c-0.1,0-0.1,0-0.2,0c-0.1,0-0.1,0-0.1-0.1c-0.1,0-0.2-0.1-0.2-0.1
			s-0.1-0.1-0.2-0.2c-0.1-0.1-0.1-0.1-0.2-0.2s-0.1-0.2-0.2-0.3c-0.1,0-0.2,0.1-0.3,0.1c-0.1,0-0.2,0-0.3-0.1l-0.3-0.1l0.3-0.6
			l0.3,0.1c0,0,0.1,0,0.1,0s0.1,0,0.1-0.1c0,0,0.1-0.1,0.1-0.1c0,0,0.1-0.1,0.1-0.2c0.1-0.1,0.2-0.2,0.3-0.3s0.2-0.2,0.3-0.3
			c0.1-0.1,0.3-0.1,0.4-0.1S63.6,112.4,63.7,112.5z M63.2,114.3C63.2,114.3,63.2,114.3,63.2,114.3c0.1,0,0.1,0,0.2,0
			c0,0,0.1,0,0.2-0.1c0.1,0,0.1-0.1,0.2-0.2c0,0,0-0.1,0.1-0.2c0-0.1,0-0.2,0-0.2s0-0.2-0.1-0.2c0-0.1-0.1-0.1-0.2-0.2
			c-0.1,0-0.2,0-0.2,0c-0.1,0-0.2,0.1-0.2,0.1s-0.1,0.1-0.2,0.2c-0.1,0.1-0.1,0.1-0.2,0.2c0,0.1,0.1,0.1,0.1,0.2
			c0.1,0.1,0.1,0.1,0.2,0.2c0.1,0.1,0.1,0.1,0.2,0.2C63.1,114.2,63.1,114.2,63.2,114.3z"/>
		<path class="st1" d="M64,116.9l-0.3-0.6l0.6-0.3l0.3,0.6L64,116.9z M66.9,115.7l-0.3,0.6l-0.4-0.2c-0.1-0.1-0.3-0.1-0.4-0.2
			c-0.1-0.1-0.2-0.2-0.2-0.3c-0.1,0-0.3,0.1-0.4,0c-0.1,0-0.3-0.1-0.5-0.1l-0.9-0.4l0.3-0.6l0.9,0.4c0.1,0,0.2,0.1,0.3,0.1
			s0.1,0,0.2,0c0,0,0.1,0,0.1-0.1c0,0,0-0.1,0.1-0.1l0.3-0.8l0.6,0.3l-0.3,0.8c0,0.1,0,0.1,0,0.2c0,0.1,0,0.1,0.1,0.1
			c0,0,0.1,0.1,0.1,0.1c0,0,0.1,0,0.1,0L66.9,115.7z M65,117.3l-0.3-0.6l0.6-0.3l0.3,0.6L65,117.3z"/>
		<path class="st1" d="M66.2,117.1l0.6-0.3l0.3,0.6l-0.6,0.3L66.2,117.1z M69,114.7C69,114.7,69,114.7,69,114.7c0,0.1,0,0.2,0,0.3
			c0,0.1,0,0.1,0,0.2c0,0.1,0,0.2,0,0.3c0,0.1,0,0.2,0,0.2c0,0.1,0,0.1-0.1,0.2c-0.1,0.2-0.1,0.3-0.2,0.4s-0.2,0.2-0.3,0.2
			c-0.1,0.1-0.3,0.1-0.4,0.1c-0.1,0-0.3,0-0.4-0.1l-1.1-0.4l0.2-0.6l1.1,0.4c0,0,0.1,0,0.1,0s0.1,0,0.1,0s0.1,0,0.1-0.1
			c0,0,0.1-0.1,0.1-0.2c0,0,0-0.1,0-0.1c0-0.1,0-0.1,0-0.2c0-0.1,0-0.1,0-0.2c0-0.1,0-0.1,0-0.2c0-0.1,0-0.1,0-0.2
			c0-0.1,0-0.1,0-0.1L69,114.7z M66.5,118l0.5-0.3l0.3,0.6l-0.5,0.3L66.5,118z M67.3,117.5l0.6-0.3l0.3,0.6l-0.6,0.3L67.3,117.5z"/>
		<path class="st1" d="M72.9,118.1l-0.1,0c-0.1,0-0.1,0-0.2-0.1c-0.1,0-0.1-0.1-0.2-0.1c-0.1,0.2-0.2,0.4-0.3,0.6s-0.3,0.3-0.4,0.4
			c-0.2,0.1-0.4,0.2-0.6,0.2c-0.2,0-0.4,0-0.7,0l-0.3-0.1l0.2-0.7l0.3,0.1c0.2,0,0.3,0.1,0.5,0c0.1,0,0.2,0,0.3-0.1s0.2-0.1,0.2-0.3
			c0.1-0.1,0.1-0.3,0.2-0.4l0.4-1.6l0.7,0.2l-0.2,0.8c0,0.1,0,0.2,0,0.2s0.1,0.1,0.1,0.1c0,0,0.1,0.1,0.1,0.1c0,0,0.1,0,0.1,0l0.1,0
			L72.9,118.1z"/>
		<path class="st1" d="M72.9,119.6l-0.4-0.5l0.5-0.4l0.4,0.5L72.9,119.6z M75,116.1C75,116.1,75,116.1,75,116.1c0,0.1,0,0.2,0,0.3
			c0,0.1,0,0.1,0,0.2c0,0.1,0,0.2,0,0.3c0,0.1,0,0.2,0,0.2c0,0.1,0,0.2,0,0.2c0,0.2-0.1,0.3-0.2,0.5c-0.1,0.1-0.2,0.2-0.3,0.3
			s-0.2,0.1-0.4,0.1c-0.1,0-0.3,0-0.4,0l-1.2-0.2l0.1-0.7l1.2,0.2c0,0,0.1,0,0.1,0c0,0,0.1,0,0.1,0c0,0,0.1-0.1,0.1-0.1
			c0,0,0.1-0.1,0.1-0.2c0,0,0-0.1,0-0.1c0-0.1,0-0.1,0-0.2c0-0.1,0-0.1,0-0.2c0-0.1,0-0.1,0-0.2c0-0.1,0-0.1,0-0.2
			c0-0.1,0-0.1,0-0.1L75,116.1z M74,119.8l-0.4-0.5l0.5-0.4l0.4,0.5L74,119.8z"/>
		<path class="st1" d="M75.4,119.3c0.1,0,0.3,0,0.4,0c0.1,0,0.2,0,0.3,0c0.1,0,0.2,0,0.2,0c0.1,0,0.1-0.1,0.2-0.1
			c0.1-0.1,0.1-0.1,0.2-0.2c0-0.1,0.1-0.2,0.1-0.3l-0.4,0c-0.1,0-0.2,0-0.3-0.1c-0.1,0-0.2-0.1-0.3-0.1c-0.1,0-0.2-0.1-0.2-0.2
			c-0.1-0.1-0.1-0.1-0.2-0.2s-0.1-0.2-0.1-0.3c0-0.1,0-0.2,0-0.4c0-0.1,0-0.2,0.1-0.3c0-0.1,0.1-0.2,0.1-0.2c0-0.1,0.1-0.1,0.1-0.2
			s0.1-0.1,0.1-0.1c0.1-0.1,0.3-0.2,0.4-0.2c0.1,0,0.3-0.1,0.5,0c0.2,0,0.4,0.1,0.5,0.2c0.1,0.1,0.2,0.2,0.3,0.3
			c0.1,0.1,0.1,0.3,0.1,0.4c0,0.2,0,0.3,0,0.5l0,0.4l0.5,0.1l-0.1,0.7l-0.5-0.1c0,0.2-0.1,0.5-0.2,0.6c-0.1,0.2-0.2,0.3-0.4,0.4
			c-0.1,0.1-0.2,0.1-0.3,0.1c-0.1,0-0.2,0.1-0.3,0.1c-0.1,0-0.3,0-0.4,0c-0.2,0-0.3,0-0.5,0L75.4,119.3z M76.6,116.9
			c-0.2,0-0.3,0-0.4,0.1c-0.1,0.1-0.2,0.2-0.2,0.4c0,0.1,0,0.1,0,0.2c0,0.1,0.1,0.1,0.1,0.2s0.1,0.1,0.2,0.1s0.1,0,0.2,0l0.4,0
			l0-0.4c0-0.1,0-0.2,0-0.3c0-0.1,0-0.1,0-0.2c0-0.1,0-0.1-0.1-0.1c0,0-0.1-0.1-0.1-0.1C76.7,116.9,76.6,116.9,76.6,116.9
			C76.6,116.9,76.6,116.9,76.6,116.9z"/>
		<path class="st1" d="M77.6,118.7l0-0.7l1.6,0.1c0,0,0.1,0,0.1,0s0.1,0,0.2,0c0,0,0.1,0,0.1,0s0.1-0.1,0.1-0.1c0-0.1,0-0.2-0.1-0.3
			c-0.1-0.1-0.1-0.2-0.2-0.4c-0.1-0.1-0.2-0.3-0.3-0.4c-0.1-0.1-0.2-0.3-0.3-0.4c-0.1-0.1-0.2-0.2-0.3-0.3c-0.1-0.1-0.2-0.2-0.2-0.2
			l0.1-0.6l2.4-1l0.2,0.6l-2,0.8c0.1,0.1,0.1,0.1,0.2,0.2c0.1,0.1,0.2,0.2,0.3,0.3c0.1,0.1,0.2,0.2,0.3,0.3c0.1,0.1,0.2,0.2,0.2,0.3
			c0.1,0.1,0.1,0.2,0.2,0.3s0.1,0.2,0.1,0.3c0,0.1,0,0.2,0.1,0.2c0,0.1,0,0.1,0,0.2c0,0.1,0,0.1,0,0.2c0,0.1,0,0.1-0.1,0.1
			c0,0-0.1,0.1-0.1,0.2c0,0.1-0.1,0.1-0.2,0.2s-0.2,0.1-0.3,0.1c-0.1,0-0.3,0-0.4,0L77.6,118.7z"/>
		<path class="st1" d="M90.2,118c-0.4,0-0.7,0-0.9-0.2c-0.1,0.1-0.2,0.2-0.3,0.2c-0.1,0.1-0.2,0.1-0.4,0.1c-0.3,0-0.6,0-0.8-0.2
			c-0.1,0.1-0.2,0.2-0.3,0.2c-0.1,0.1-0.2,0.1-0.4,0.1c-0.1,0-0.2,0-0.3,0s-0.2,0-0.2,0l0,0.1c0.1,0.5,0,0.9-0.3,1.2
			c-0.2,0.3-0.6,0.4-1.1,0.5l-0.6,0.1c-0.1,0-0.3,0-0.4,0c-0.1,0-0.3-0.1-0.4-0.1c-0.1,0-0.2-0.1-0.4-0.2c-0.1-0.1-0.2-0.2-0.3-0.3
			c-0.1-0.1-0.2-0.3-0.3-0.4c-0.1-0.2-0.1-0.3-0.1-0.5c0-0.1,0-0.2,0-0.4c0-0.1,0-0.2,0-0.4c0-0.1,0-0.3,0.1-0.4
			c0-0.1,0.1-0.3,0.1-0.5l0.6,0.2c0,0.1-0.1,0.3-0.1,0.4c0,0.1-0.1,0.2-0.1,0.3c0,0.1,0,0.2,0,0.3c0,0.1,0,0.2,0,0.3
			c0,0.1,0,0.2,0.1,0.3c0,0.1,0.1,0.2,0.2,0.3c0.1,0.1,0.2,0.2,0.4,0.3c0.2,0.1,0.3,0.1,0.5,0.1l0.6-0.1c0.2,0,0.3-0.1,0.5-0.1
			c0.1-0.1,0.2-0.1,0.3-0.2c0.1-0.1,0.1-0.2,0.1-0.3c0-0.1,0-0.2,0-0.3l-0.2-1.9l0.7-0.1l0.1,0.5c0,0.2,0,0.3,0.1,0.4
			c0,0.1,0.1,0.1,0.1,0.2c0.1,0,0.1,0.1,0.2,0.1c0.1,0,0.1,0,0.2,0c0,0,0.1,0,0.1,0s0.1,0,0.1-0.1s0.1-0.1,0.1-0.1
			c0-0.1,0-0.1,0-0.2l-0.1-0.8l0.7-0.1l0.1,0.8c0,0.1,0.1,0.2,0.2,0.3c0.1,0.1,0.2,0.1,0.4,0.1c0,0,0.1,0,0.1,0c0,0,0.1,0,0.1-0.1
			c0,0,0.1-0.1,0.1-0.1c0-0.1,0-0.1,0-0.2l-0.1-0.8l0.7-0.1l0.1,0.8c0,0.1,0.1,0.2,0.2,0.3c0.1,0.1,0.2,0.1,0.4,0l0.2,0l0.1,0.7
			L90.2,118z M87.4,115.4l-0.4,0.5l-0.5-0.4l0.4-0.5L87.4,115.4z M87.8,114.5l-0.4,0.5l-0.5-0.4l0.4-0.5L87.8,114.5z M88.5,115.2
			l-0.4,0.5l-0.5-0.4l0.4-0.5L88.5,115.2z"/>
		<path class="st1" d="M91.3,115.2C91.3,115.2,91.4,115.3,91.3,115.2c0.1,0.1,0.1,0.2,0.1,0.2c0,0.1,0.1,0.1,0.1,0.2
			c0,0.1,0.1,0.2,0.1,0.2c0,0.1,0.1,0.2,0.1,0.2c0,0.1,0,0.1,0.1,0.2c0,0.2,0.1,0.3,0,0.5c0,0.1-0.1,0.3-0.2,0.4
			c-0.1,0.1-0.2,0.2-0.3,0.3c-0.1,0.1-0.2,0.1-0.3,0.2l-1.1,0.3l-0.2-0.7l1.2-0.3c0,0,0.1,0,0.1,0c0,0,0.1,0,0.1-0.1
			c0,0,0.1-0.1,0.1-0.1c0-0.1,0-0.1,0-0.2c0,0,0-0.1,0-0.1c0-0.1,0-0.1-0.1-0.2c0-0.1-0.1-0.1-0.1-0.2s-0.1-0.1-0.1-0.2
			s-0.1-0.1-0.1-0.2c0,0,0-0.1-0.1-0.1L91.3,115.2z M90.8,119.2l-0.6-0.3l0.3-0.6l0.6,0.3L90.8,119.2z M91.9,119l-0.6-0.3l0.3-0.6
			l0.6,0.3L91.9,119z"/>
		<path class="st1" d="M95.3,116.4l-0.2,0.1c-0.2,0.1-0.5,0-0.8-0.1c0,0.1-0.1,0.2-0.2,0.2c-0.1,0.1-0.1,0.1-0.2,0.2
			c-0.1,0.1-0.2,0.1-0.3,0.1c-0.1,0-0.2,0.1-0.3,0.1c-0.1,0-0.1,0-0.2,0c-0.1,0-0.2,0-0.2,0s-0.2,0-0.3,0c-0.1,0-0.3,0-0.4,0l0-0.7
			c0.1,0,0.2,0,0.4,0c0.1,0,0.2,0,0.4,0c0.1,0,0.2,0,0.3-0.1c0,0,0.1,0,0.1,0c0.1,0,0.1,0,0.2-0.1s0.1-0.1,0.2-0.1s0.1-0.1,0.1-0.2
			c0,0,0,0,0-0.1c0,0,0,0,0-0.1c0,0,0,0-0.1-0.1c0,0-0.1-0.1-0.1-0.1l-1.3-1l0.4-0.5l1.4,1.1c0.1,0.1,0.2,0.1,0.2,0.2
			c0.1,0.1,0.2,0.1,0.2,0.2c0.1,0,0.1,0.1,0.2,0.1c0.1,0,0.1,0,0.2,0l0.2-0.1L95.3,116.4z"/>
		<path class="st1" d="M94.3,113.1l0.3-0.6l0.6,0.3l-0.3,0.6L94.3,113.1z M95.7,113.8C95.7,113.8,95.7,113.8,95.7,113.8
			c0.1,0.1,0.1,0.2,0.1,0.2c0,0.1,0.1,0.1,0.1,0.2c0,0.1,0.1,0.1,0.1,0.2c0,0.1,0.1,0.1,0.1,0.2c0,0.1,0.1,0.1,0.1,0.2
			c0.1,0.2,0.1,0.3,0.1,0.5c0,0.1,0,0.3-0.1,0.4c-0.1,0.1-0.1,0.2-0.2,0.3c-0.1,0.1-0.2,0.1-0.3,0.2l-0.7,0.3l-0.2-0.6l0.7-0.3
			c0,0,0,0,0.1,0c0,0,0.1,0,0.1-0.1c0,0,0-0.1,0.1-0.2c0-0.1,0-0.1,0-0.2c0,0,0-0.1-0.1-0.1c0-0.1-0.1-0.1-0.1-0.2
			c0-0.1-0.1-0.1-0.1-0.2c0-0.1-0.1-0.1-0.1-0.2c0-0.1-0.1-0.1-0.1-0.1c0,0-0.1-0.1-0.1-0.1L95.7,113.8z"/>
		<path class="st1" d="M97.8,115.4l-0.6,0.3l-1.5-3.6l0.6-0.3L97.8,115.4z"/>
		<path class="st1" d="M99.6,111.2l0.2-0.7l0.7,0.2l-0.2,0.7L99.6,111.2z M101.7,113.3c0.1,0.2,0.2,0.4,0.2,0.7s0,0.4-0.1,0.6
			c-0.1,0.2-0.2,0.4-0.3,0.5c-0.1,0.2-0.3,0.3-0.6,0.4l-0.3,0.2l-0.3-0.6l0.3-0.2c0.2-0.1,0.3-0.2,0.4-0.3s0.2-0.2,0.2-0.3
			c0-0.1,0-0.2,0-0.4s-0.1-0.3-0.2-0.4l-0.8-1.5l0.6-0.3L101.7,113.3z"/>
		<path class="st1" d="M102.8,113.8c0.1-0.1,0.2-0.1,0.3-0.2c0.1-0.1,0.2-0.1,0.2-0.2c0.1-0.1,0.1-0.1,0.2-0.2
			c0-0.1,0.1-0.1,0.1-0.2c0-0.1,0-0.2,0-0.3c0-0.1,0-0.2-0.1-0.3l-0.4,0.2c-0.1,0-0.2,0.1-0.2,0.1c-0.1,0-0.2,0.1-0.3,0.1
			c-0.1,0-0.2,0-0.3,0c-0.1,0-0.2,0-0.3-0.1s-0.2-0.1-0.3-0.2c-0.1-0.1-0.2-0.2-0.2-0.3c-0.1-0.1-0.1-0.2-0.1-0.3
			c0-0.1-0.1-0.2-0.1-0.3s0-0.2,0-0.2c0-0.1,0-0.1,0-0.2c0-0.1,0.1-0.3,0.2-0.4c0.1-0.1,0.2-0.2,0.3-0.3c0.2-0.1,0.3-0.2,0.5-0.2
			c0.2,0,0.3,0,0.4,0.1c0.1,0.1,0.3,0.1,0.4,0.3s0.2,0.3,0.3,0.4l0.5,0.8c0.1,0.2,0.2,0.4,0.2,0.6c0,0.2,0,0.4-0.1,0.6
			c0,0.1-0.1,0.2-0.1,0.3c-0.1,0.1-0.1,0.2-0.2,0.3c-0.1,0.1-0.2,0.2-0.3,0.3c-0.1,0.1-0.3,0.2-0.4,0.3L102.8,113.8z M102.2,111.2
			c-0.1,0.1-0.2,0.2-0.2,0.3c0,0.1,0,0.3,0.1,0.5c0,0.1,0.1,0.1,0.1,0.2c0.1,0,0.1,0,0.2,0.1s0.1,0,0.2,0s0.1,0,0.2-0.1l0.4-0.2
			l-0.2-0.3c-0.1-0.1-0.1-0.2-0.2-0.2s-0.1-0.1-0.2-0.1c0,0-0.1,0-0.1-0.1c0,0-0.1,0-0.1,0C102.3,111.2,102.3,111.2,102.2,111.2
			C102.3,111.2,102.2,111.2,102.2,111.2z"/>
		<path class="st1" d="M105.8,110.7c0.1,0.2,0.2,0.4,0.3,0.6c0,0.2,0,0.4,0,0.6c0,0.2-0.1,0.4-0.2,0.6c-0.1,0.2-0.3,0.3-0.5,0.5
			l-0.3,0.2l-0.4-0.6l0.3-0.2c0.1-0.1,0.3-0.2,0.3-0.3c0.1-0.1,0.1-0.2,0.2-0.3c0-0.1,0-0.2,0-0.4c0-0.1-0.1-0.3-0.2-0.4l-0.9-1.4
			l0.6-0.4L105.8,110.7z"/>
		<path class="st1" d="M110.3,104.6l0.5,0.6c0,0,0.1,0.1,0.1,0.1c0,0,0.1,0,0.1,0c0,0,0.1,0,0.1,0c0,0,0.1,0,0.1,0c0,0,0.1,0,0.1,0
			c0,0,0,0,0,0l0.1-0.1l0.5,0.5l-0.1,0.1c0,0-0.1,0.1-0.2,0.1c-0.1,0-0.1,0.1-0.2,0.1c-0.1,0-0.1,0.1-0.2,0.1c-0.1,0-0.1,0-0.2,0
			c0,0.3-0.2,0.5-0.4,0.7l-2.3,2.1c-0.1,0.1-0.2,0.2-0.3,0.2c-0.1,0-0.2,0.1-0.4,0.1c0,0-0.1,0-0.2,0c-0.1,0-0.1,0-0.2-0.1
			c-0.1,0-0.1-0.1-0.2-0.1c-0.1,0-0.1-0.1-0.2-0.2c-0.1-0.1-0.1-0.1-0.2-0.2c-0.1-0.1-0.1-0.2-0.2-0.3c0-0.1-0.1-0.2-0.1-0.2
			c0-0.1-0.1-0.1-0.1-0.1l0.3-0.1l0.3-0.1c0,0,0,0.1,0.1,0.2c0,0.1,0.1,0.1,0.1,0.2c0,0.1,0.1,0.1,0.1,0.2c0,0.1,0.1,0.1,0.1,0.1
			c0.1,0.1,0.1,0.1,0.2,0.1c0.1,0,0.1,0,0.1,0c0,0,0.1,0,0.1,0c0,0,0.1,0,0.1-0.1l2.3-2.1c0.1-0.1,0.1-0.1,0.2-0.2
			c0-0.1,0.1-0.1,0.1-0.2c0-0.1,0-0.1-0.1-0.2l-0.6-0.7L110.3,104.6z M107.7,106.7l-0.7,0l0-0.6l0.7,0L107.7,106.7z M108.6,105.9
			l-0.7,0l0-0.7l0.7,0L108.6,105.9z"/>
		<path class="st1" d="M111.7,105.8l-0.5-0.5l1.1-1.2c0,0,0-0.1,0.1-0.1c0,0,0.1-0.1,0.1-0.1c0,0,0-0.1,0-0.1c0,0,0-0.1,0-0.1
			c-0.1-0.1-0.1-0.1-0.3-0.1c-0.1,0-0.3-0.1-0.4-0.1c-0.2,0-0.3,0-0.5,0c-0.2,0-0.3,0-0.5,0s-0.3,0-0.4,0c-0.1,0-0.2,0-0.3,0
			l-0.4-0.5l0.8-2.5l0.6,0.2l-0.7,2.1c0.1,0,0.2,0,0.3,0s0.2,0,0.4,0s0.3,0,0.4,0c0.1,0,0.3,0,0.4,0c0.1,0,0.3,0,0.4,0
			c0.1,0,0.2,0,0.3,0.1c0.1,0,0.1,0.1,0.2,0.1c0.1,0,0.1,0.1,0.2,0.1c0.1,0,0.1,0.1,0.1,0.1c0,0,0.1,0.1,0.1,0.1c0,0,0,0.1,0.1,0.2
			s0,0.2,0,0.3c0,0.1,0,0.2-0.1,0.3s-0.1,0.2-0.3,0.4L111.7,105.8z"/>
		<path class="st1" d="M115.2,101.6L115.2,101.6c-0.1,0.1-0.2,0.2-0.2,0.2c0,0-0.1,0.1-0.2,0.1c0.2,0.2,0.3,0.3,0.4,0.5
			c0.1,0.2,0.2,0.4,0.2,0.6c0,0.2,0,0.4-0.1,0.6c-0.1,0.2-0.2,0.4-0.3,0.6l-0.2,0.3l-0.5-0.4l0.2-0.3c0.1-0.1,0.2-0.3,0.2-0.4
			c0-0.1,0.1-0.2,0.1-0.4s-0.1-0.2-0.1-0.3c-0.1-0.1-0.2-0.2-0.3-0.3l-1.3-1l0.4-0.5l0.6,0.5c0.1,0.1,0.1,0.1,0.2,0.1s0.1,0,0.2,0
			c0.1,0,0.1,0,0.1-0.1c0,0,0.1,0,0.1-0.1l0.1-0.1L115.2,101.6z"/>
		<path class="st1" d="M113.7,97l0.1,0.6l-0.6,0.1l-0.1-0.6L113.7,97z M114,97.9l0.1,0.6l-0.6,0.1l-0.1-0.6L114,97.9z M114.6,96.9
			l0.1,0.6l-0.6,0.1l-0.1-0.7L114.6,96.9z M116.2,100.1c-0.2,0.3-0.4,0.5-0.7,0.5c0,0.1,0,0.3,0,0.4c0,0.1-0.1,0.2-0.2,0.3l-0.3,0.5
			l-0.6-0.4l0.3-0.5c0,0,0,0,0-0.1c0,0,0-0.1,0-0.1c0,0,0-0.1,0-0.2c0-0.1-0.1-0.1-0.2-0.2L114,100l0.4-0.6l0.6,0.4
			c0.1,0.1,0.2,0.1,0.3,0.1c0.1,0,0.2-0.1,0.3-0.2c0,0,0,0,0-0.1c0,0,0-0.1,0-0.1c0-0.1,0-0.1,0-0.2c0-0.1-0.1-0.1-0.2-0.2l-0.6-0.4
			l0.4-0.6l0.6,0.4c0.1,0.1,0.2,0.1,0.3,0.1s0.2-0.1,0.3-0.2c0,0,0,0,0-0.1c0,0,0-0.1,0-0.1c0-0.1,0-0.1-0.1-0.2
			c0-0.1-0.1-0.1-0.2-0.2c0,0-0.1,0-0.1-0.1c-0.1,0-0.1-0.1-0.2-0.1c-0.1,0-0.1-0.1-0.2-0.1c-0.1,0-0.1,0-0.2-0.1s-0.1,0-0.2-0.1
			c0,0-0.1,0-0.1,0l0.2-0.7c0,0,0,0,0.1,0c0,0,0.1,0,0.2,0.1c0.1,0,0.1,0.1,0.2,0.1c0.1,0,0.2,0.1,0.2,0.1c0.1,0,0.2,0.1,0.2,0.1
			s0.1,0.1,0.2,0.1c0.2,0.1,0.3,0.2,0.4,0.3c0.1,0.1,0.1,0.3,0.2,0.4c0,0.1,0,0.3,0,0.4c0,0.1-0.1,0.2-0.1,0.4
			c-0.2,0.3-0.4,0.5-0.7,0.5c0,0.1,0,0.3,0,0.4C116.4,99.9,116.3,100,116.2,100.1z"/>
	</g>
	<g class="st6">
		<path class="st1" d="M44.3,97.5C44.4,97.5,44.4,97.4,44.3,97.5c0.1-0.1,0.2-0.1,0.2-0.1c0,0,0.1,0,0.1-0.1c0,0,0.1,0,0.1-0.1l0,0
			c0.1,0,0.2-0.1,0.2-0.1c0.1,0,0.2-0.1,0.3-0.1c0.2-0.1,0.4-0.2,0.5-0.3c0.2-0.1,0.4-0.2,0.6-0.4s0.4-0.3,0.6-0.4
			c0.2-0.2,0.4-0.3,0.6-0.6l0.5,0.4c-0.2,0.2-0.4,0.4-0.6,0.6c-0.2,0.2-0.4,0.3-0.6,0.5c-0.2,0.1-0.4,0.3-0.6,0.4s-0.4,0.2-0.6,0.3
			c-0.1,0.1-0.2,0.1-0.3,0.1c-0.1,0-0.2,0.1-0.2,0.1c0,0-0.1,0-0.1,0.1c0,0-0.1,0-0.1,0.1c0,0-0.1,0-0.1,0.1c0,0-0.1,0-0.1,0.1
			L44.3,97.5z"/>
		<path class="st1" d="M50.7,99.9c0,0-0.1,0.1-0.1,0.2c-0.1,0.1-0.1,0.1-0.2,0.2c-0.1,0.1-0.1,0.1-0.2,0.2c-0.1,0.1-0.1,0.1-0.2,0.2
			c-0.1,0.1-0.2,0.1-0.3,0.2c-0.1,0-0.2,0.1-0.4,0.1c-0.1,0-0.2,0-0.3-0.1c-0.1-0.1-0.2-0.1-0.3-0.3c0,0-0.1-0.1-0.1-0.2
			s0-0.1-0.1-0.2c0-0.1,0-0.1,0-0.2c0-0.1,0-0.2,0-0.2c-0.1,0-0.3,0-0.4-0.1c-0.1-0.1-0.2-0.1-0.3-0.2l0,0c0,0,0,0-0.1-0.1
			s0-0.1-0.1-0.1c0,0,0-0.1-0.1-0.1c0,0,0-0.1,0-0.1c-0.2,0.2-0.4,0.3-0.6,0.5s-0.4,0.3-0.5,0.4l-0.5,0.3l-0.4-0.6l0.4-0.3
			c0.2-0.1,0.4-0.3,0.6-0.4c0.2-0.2,0.4-0.3,0.7-0.5c0.2-0.2,0.4-0.4,0.6-0.6c0.2-0.2,0.4-0.4,0.6-0.7l0.5,0.4c0,0-0.1,0.1-0.1,0.1
			c0,0-0.1,0.1-0.1,0.1c0,0-0.1,0.1-0.1,0.1c0,0-0.1,0.1-0.1,0.2c0,0.1-0.1,0.1-0.1,0.2c0,0.1-0.1,0.1-0.1,0.2c0,0.1,0,0.1,0,0.2
			s0,0.1,0,0.2c0,0,0.1,0.1,0.1,0.1c0,0,0.1,0,0.2,0c0.1,0,0.1,0,0.2-0.1c0.1,0,0.2-0.1,0.3-0.2c0,0,0.1,0,0.1-0.1
			c0,0,0.1,0,0.1-0.1c0,0,0.1,0,0.1-0.1c0,0,0.1-0.1,0.1-0.1l0.4,0.5c-0.2,0.1-0.3,0.3-0.4,0.4c-0.1,0.1-0.2,0.2-0.3,0.3
			c-0.1,0.1-0.1,0.2-0.1,0.2c0,0.1,0,0.1,0.1,0.2c0,0,0.1,0.1,0.2,0.1c0.1,0,0.1,0,0.2-0.1c0.1,0,0.1-0.1,0.2-0.1s0.1-0.1,0.2-0.2
			c0.1-0.1,0.1-0.1,0.1-0.1c0,0,0.1-0.1,0.1-0.1L50.7,99.9z"/>
		<path class="st1" d="M52.3,101.5c0,0,0,0.1,0,0.1c0,0.1,0,0.2,0,0.3c0,0.1,0,0.3,0,0.4c0,0.2,0,0.3,0,0.5c0,0.2-0.1,0.4-0.1,0.6
			c0,0.2-0.1,0.4-0.2,0.6c-0.1,0.2-0.2,0.4-0.3,0.5s-0.2,0.3-0.4,0.4c-0.1,0.1-0.2,0.1-0.3,0.2c-0.1,0-0.2,0.1-0.3,0.1
			c-0.1,0-0.2,0-0.2,0c-0.1,0-0.1,0-0.2,0c-0.1,0-0.2-0.1-0.3-0.1s-0.2-0.1-0.3-0.2c-0.1-0.1-0.1-0.2-0.2-0.3s-0.1-0.2-0.1-0.3
			c-0.1,0-0.2-0.1-0.3-0.1c-0.1-0.1-0.2-0.1-0.3-0.2c-0.1-0.1-0.1-0.1-0.2-0.2c0-0.1-0.1-0.2-0.1-0.2c0-0.1,0-0.2,0-0.3
			c0-0.1,0-0.2,0-0.3c0-0.1,0.1-0.2,0.1-0.2c0-0.1,0.1-0.1,0.1-0.2c0,0,0.1-0.1,0.1-0.1c0,0,0.1-0.1,0.1-0.1
			c0.1-0.1,0.3-0.2,0.4-0.3s0.3-0.1,0.5-0.2c0.2-0.1,0.3-0.1,0.5-0.1c0.2,0,0.3,0,0.5-0.1c0.1,0,0.3,0,0.4,0c0.1,0,0.2,0,0.3,0
			l0-0.3L52.3,101.5z M50.5,104.7c0.1,0,0.1,0,0.2,0c0.1,0,0.1-0.1,0.2-0.1c0.1-0.1,0.2-0.2,0.2-0.3c0.1-0.1,0.1-0.2,0.2-0.3
			c0.1-0.1,0.1-0.2,0.1-0.4c0-0.1,0.1-0.3,0.1-0.4c0-0.1,0-0.3,0.1-0.4c0-0.1,0-0.3,0-0.4c-0.1,0-0.2,0-0.3,0c-0.1,0-0.2,0-0.4,0
			c-0.1,0-0.3,0-0.4,0.1c-0.1,0-0.3,0.1-0.4,0.1c-0.1,0-0.2,0.1-0.4,0.1s-0.2,0.1-0.3,0.2c0,0-0.1,0.1-0.1,0.1
			c0,0.1-0.1,0.1-0.1,0.2c0,0.1,0,0.1,0,0.2s0,0.1,0.1,0.2c0,0,0.1,0.1,0.1,0.1c0,0,0.1,0,0.1,0.1c0,0,0.1,0,0.1,0
			c0,0,0.1,0,0.1-0.1s0.1-0.1,0.1-0.1c0,0,0.1-0.1,0.1-0.1l0.5,0.4c0,0,0,0,0,0c0,0,0,0,0,0c0,0,0,0-0.1,0.1c0,0-0.1,0.1-0.1,0.1
			l0,0c0,0-0.1,0-0.1,0.1c0,0-0.1,0.1-0.1,0.1c0,0.1,0,0.1,0,0.2c0,0.1,0,0.1,0.1,0.2c0,0,0.1,0.1,0.1,0.1
			C50.5,104.7,50.5,104.7,50.5,104.7z"/>
		<path class="st1" d="M55.2,104.5c0,0,0,0.1,0,0.1s0,0.2,0,0.3s0,0.3,0,0.4c0,0.2,0,0.3,0,0.5c0,0.2,0,0.4,0,0.6
			c0,0.2-0.1,0.4-0.1,0.6c-0.1,0.2-0.1,0.4-0.2,0.6c-0.1,0.2-0.2,0.3-0.3,0.5c-0.1,0.1-0.2,0.2-0.3,0.2c-0.1,0.1-0.2,0.1-0.2,0.1
			c-0.1,0-0.2,0.1-0.2,0.1s-0.1,0-0.2,0c-0.1,0-0.2,0-0.3-0.1c-0.1,0-0.2-0.1-0.3-0.2c-0.1-0.1-0.2-0.2-0.2-0.3
			c-0.1-0.1-0.1-0.2-0.1-0.3c-0.1,0-0.2,0-0.3-0.1c-0.1,0-0.2-0.1-0.3-0.2c-0.1-0.1-0.1-0.1-0.2-0.2c-0.1-0.1-0.1-0.2-0.1-0.2
			c0-0.1,0-0.2-0.1-0.3s0-0.2,0-0.3c0-0.1,0-0.2,0.1-0.2c0-0.1,0.1-0.1,0.1-0.2c0-0.1,0.1-0.1,0.1-0.1c0,0,0-0.1,0.1-0.1
			c0.1-0.1,0.2-0.2,0.4-0.3s0.3-0.2,0.4-0.2c0.1-0.1,0.3-0.1,0.5-0.2c0.2,0,0.3-0.1,0.4-0.1c0.1,0,0.3-0.1,0.4-0.1
			c0.1,0,0.2,0,0.3,0l0-0.3L55.2,104.5z M53.8,107.9c0.1,0,0.1,0,0.2,0c0.1,0,0.1-0.1,0.2-0.1c0.1-0.1,0.1-0.2,0.2-0.3
			c0.1-0.1,0.1-0.2,0.1-0.3c0-0.1,0.1-0.2,0.1-0.4c0-0.1,0-0.3,0-0.4c0-0.1,0-0.3,0-0.4c0-0.1,0-0.3,0-0.4c-0.1,0-0.2,0-0.3,0
			c-0.1,0-0.2,0-0.4,0.1c-0.1,0-0.2,0.1-0.4,0.1c-0.1,0-0.3,0.1-0.4,0.1c-0.1,0.1-0.2,0.1-0.3,0.2c-0.1,0.1-0.2,0.2-0.3,0.2
			c0,0-0.1,0.1-0.1,0.2c0,0.1,0,0.1,0,0.2c0,0.1,0,0.1,0,0.2c0,0.1,0,0.1,0.1,0.1c0,0,0.1,0,0.1,0.1c0,0,0.1,0,0.1,0
			c0,0,0.1,0,0.1,0c0,0,0.1-0.1,0.1-0.1c0,0,0.1-0.1,0.1-0.1c0,0,0.1-0.1,0.1-0.1l0.6,0.3c0,0,0,0,0,0c0,0,0,0,0,0c0,0,0,0-0.1,0.1
			c0,0-0.1,0.1-0.1,0.1l0,0c0,0,0,0-0.1,0.1c0,0-0.1,0.1-0.1,0.1c0,0.1,0,0.1,0,0.2c0,0.1,0.1,0.1,0.1,0.1c0,0,0.1,0,0.1,0.1
			C53.7,107.8,53.7,107.9,53.8,107.9z"/>
		<path class="st1" d="M59.3,108c0,0,0,0.1,0,0.1c0,0.1-0.1,0.1-0.1,0.2s-0.1,0.2-0.1,0.3c0,0.1-0.1,0.2-0.2,0.2
			c-0.1,0.2-0.2,0.3-0.4,0.3c-0.1,0.1-0.3,0.1-0.4,0.1c-0.1,0-0.3,0-0.4,0c-0.1,0-0.2-0.1-0.3-0.2c-0.1-0.1-0.2-0.2-0.2-0.2
			c-0.1-0.1-0.1-0.2-0.2-0.3c-0.1,0.1-0.2,0.3-0.3,0.4c-0.1,0.1-0.2,0.3-0.3,0.4c-0.1,0.1-0.2,0.3-0.3,0.5c-0.1,0.2-0.3,0.3-0.4,0.5
			l-0.5-0.4l0.4-0.5c0.1-0.2,0.3-0.4,0.4-0.6c0.1-0.2,0.3-0.4,0.4-0.6c0.1-0.2,0.3-0.5,0.4-0.7s0.2-0.6,0.3-0.9l0.6,0.2l-0.1,0.3
			c0,0,0,0.1,0,0.1c0,0.1,0,0.1-0.1,0.2c0,0.1,0,0.2,0,0.3c0,0.1,0,0.2,0,0.3c0,0.1,0,0.2,0.1,0.3c0,0.1,0.1,0.1,0.2,0.2
			c0,0,0,0,0.1,0c0,0,0.1,0,0.1,0c0,0,0.1,0,0.2,0s0.1-0.1,0.2-0.2c0,0,0.1-0.1,0.1-0.2c0-0.1,0.1-0.1,0.1-0.2s0-0.1,0.1-0.2
			c0-0.1,0-0.1,0-0.1L59.3,108z"/>
		<path class="st1" d="M61.3,113.9c-0.2-0.1-0.3-0.2-0.4-0.3c-0.1-0.1-0.2-0.2-0.3-0.3c-0.1-0.1-0.1-0.2-0.1-0.3c0-0.1,0-0.2,0-0.3
			c0-0.1,0.1-0.2,0.1-0.3s0.1-0.2,0.2-0.4l1.3-2.3l0.6,0.3l-1.3,2.3c-0.1,0.1-0.1,0.2-0.2,0.3c0,0.1,0,0.2,0,0.2
			c0,0.1,0.1,0.1,0.1,0.2s0.2,0.1,0.3,0.2L61.3,113.9z"/>
		<path class="st1" d="M63.7,112.5c0.2,0.1,0.3,0.2,0.4,0.3c0.1,0.1,0.2,0.3,0.2,0.4s0,0.3,0,0.5c0,0.2-0.1,0.3-0.1,0.5
			c0,0.1-0.1,0.2,0,0.2s0,0.1,0.1,0.2c0,0,0.1,0.1,0.1,0.1c0,0,0.1,0,0.1,0.1l0.1,0l-0.3,0.6l-0.1,0c-0.1-0.1-0.2-0.1-0.3-0.2
			c-0.1-0.1-0.1-0.2-0.2-0.3c-0.1,0-0.2,0.1-0.2,0.1s-0.2,0-0.2,0c-0.1,0-0.1,0-0.2,0c-0.1,0-0.1,0-0.1-0.1c-0.1,0-0.2-0.1-0.2-0.1
			s-0.1-0.1-0.2-0.2c-0.1-0.1-0.1-0.1-0.2-0.2s-0.1-0.2-0.2-0.3c-0.1,0-0.2,0.1-0.3,0.1c-0.1,0-0.2,0-0.3-0.1l-0.3-0.1l0.3-0.6
			l0.3,0.1c0,0,0.1,0,0.1,0s0.1,0,0.1-0.1c0,0,0.1-0.1,0.1-0.1c0,0,0.1-0.1,0.1-0.2c0.1-0.1,0.2-0.2,0.3-0.3s0.2-0.2,0.3-0.3
			c0.1-0.1,0.3-0.1,0.4-0.1S63.6,112.4,63.7,112.5z M63.2,114.3C63.2,114.3,63.2,114.3,63.2,114.3c0.1,0,0.1,0,0.2,0
			c0,0,0.1,0,0.2-0.1c0.1,0,0.1-0.1,0.2-0.2c0,0,0-0.1,0.1-0.2c0-0.1,0-0.2,0-0.2s0-0.2-0.1-0.2c0-0.1-0.1-0.1-0.2-0.2
			c-0.1,0-0.2,0-0.2,0c-0.1,0-0.2,0.1-0.2,0.1s-0.1,0.1-0.2,0.2c-0.1,0.1-0.1,0.1-0.2,0.2c0,0.1,0.1,0.1,0.1,0.2
			c0.1,0.1,0.1,0.1,0.2,0.2c0.1,0.1,0.1,0.1,0.2,0.2C63.1,114.2,63.1,114.2,63.2,114.3z"/>
		<path class="st1" d="M64,116.9l-0.3-0.6l0.6-0.3l0.3,0.6L64,116.9z M66.9,115.7l-0.3,0.6l-0.4-0.2c-0.1-0.1-0.3-0.1-0.4-0.2
			c-0.1-0.1-0.2-0.2-0.2-0.3c-0.1,0-0.3,0.1-0.4,0c-0.1,0-0.3-0.1-0.5-0.1l-0.9-0.4l0.3-0.6l0.9,0.4c0.1,0,0.2,0.1,0.3,0.1
			s0.1,0,0.2,0c0,0,0.1,0,0.1-0.1c0,0,0-0.1,0.1-0.1l0.3-0.8l0.6,0.3l-0.3,0.8c0,0.1,0,0.1,0,0.2c0,0.1,0,0.1,0.1,0.1
			c0,0,0.1,0.1,0.1,0.1c0,0,0.1,0,0.1,0L66.9,115.7z M65,117.3l-0.3-0.6l0.6-0.3l0.3,0.6L65,117.3z"/>
		<path class="st1" d="M66.2,117.1l0.6-0.3l0.3,0.6l-0.6,0.3L66.2,117.1z M69,114.7C69,114.7,69,114.7,69,114.7c0,0.1,0,0.2,0,0.3
			c0,0.1,0,0.1,0,0.2c0,0.1,0,0.2,0,0.3c0,0.1,0,0.2,0,0.2c0,0.1,0,0.1-0.1,0.2c-0.1,0.2-0.1,0.3-0.2,0.4s-0.2,0.2-0.3,0.2
			c-0.1,0.1-0.3,0.1-0.4,0.1c-0.1,0-0.3,0-0.4-0.1l-1.1-0.4l0.2-0.6l1.1,0.4c0,0,0.1,0,0.1,0s0.1,0,0.1,0s0.1,0,0.1-0.1
			c0,0,0.1-0.1,0.1-0.2c0,0,0-0.1,0-0.1c0-0.1,0-0.1,0-0.2c0-0.1,0-0.1,0-0.2c0-0.1,0-0.1,0-0.2c0-0.1,0-0.1,0-0.2
			c0-0.1,0-0.1,0-0.1L69,114.7z M66.5,118l0.5-0.3l0.3,0.6l-0.5,0.3L66.5,118z M67.3,117.5l0.6-0.3l0.3,0.6l-0.6,0.3L67.3,117.5z"/>
		<path class="st1" d="M72.9,118.1l-0.1,0c-0.1,0-0.1,0-0.2-0.1c-0.1,0-0.1-0.1-0.2-0.1c-0.1,0.2-0.2,0.4-0.3,0.6s-0.3,0.3-0.4,0.4
			c-0.2,0.1-0.4,0.2-0.6,0.2c-0.2,0-0.4,0-0.7,0l-0.3-0.1l0.2-0.7l0.3,0.1c0.2,0,0.3,0.1,0.5,0c0.1,0,0.2,0,0.3-0.1s0.2-0.1,0.2-0.3
			c0.1-0.1,0.1-0.3,0.2-0.4l0.4-1.6l0.7,0.2l-0.2,0.8c0,0.1,0,0.2,0,0.2s0.1,0.1,0.1,0.1c0,0,0.1,0.1,0.1,0.1c0,0,0.1,0,0.1,0l0.1,0
			L72.9,118.1z"/>
		<path class="st1" d="M72.9,119.6l-0.4-0.5l0.5-0.4l0.4,0.5L72.9,119.6z M75,116.1C75,116.1,75,116.1,75,116.1c0,0.1,0,0.2,0,0.3
			c0,0.1,0,0.1,0,0.2c0,0.1,0,0.2,0,0.3c0,0.1,0,0.2,0,0.2c0,0.1,0,0.2,0,0.2c0,0.2-0.1,0.3-0.2,0.5c-0.1,0.1-0.2,0.2-0.3,0.3
			s-0.2,0.1-0.4,0.1c-0.1,0-0.3,0-0.4,0l-1.2-0.2l0.1-0.7l1.2,0.2c0,0,0.1,0,0.1,0c0,0,0.1,0,0.1,0c0,0,0.1-0.1,0.1-0.1
			c0,0,0.1-0.1,0.1-0.2c0,0,0-0.1,0-0.1c0-0.1,0-0.1,0-0.2c0-0.1,0-0.1,0-0.2c0-0.1,0-0.1,0-0.2c0-0.1,0-0.1,0-0.2
			c0-0.1,0-0.1,0-0.1L75,116.1z M74,119.8l-0.4-0.5l0.5-0.4l0.4,0.5L74,119.8z"/>
		<path class="st1" d="M75.4,119.3c0.1,0,0.3,0,0.4,0c0.1,0,0.2,0,0.3,0c0.1,0,0.2,0,0.2,0c0.1,0,0.1-0.1,0.2-0.1
			c0.1-0.1,0.1-0.1,0.2-0.2c0-0.1,0.1-0.2,0.1-0.3l-0.4,0c-0.1,0-0.2,0-0.3-0.1c-0.1,0-0.2-0.1-0.3-0.1c-0.1,0-0.2-0.1-0.2-0.2
			c-0.1-0.1-0.1-0.1-0.2-0.2s-0.1-0.2-0.1-0.3c0-0.1,0-0.2,0-0.4c0-0.1,0-0.2,0.1-0.3c0-0.1,0.1-0.2,0.1-0.2c0-0.1,0.1-0.1,0.1-0.2
			s0.1-0.1,0.1-0.1c0.1-0.1,0.3-0.2,0.4-0.2c0.1,0,0.3-0.1,0.5,0c0.2,0,0.4,0.1,0.5,0.2c0.1,0.1,0.2,0.2,0.3,0.3
			c0.1,0.1,0.1,0.3,0.1,0.4c0,0.2,0,0.3,0,0.5l0,0.4l0.5,0.1l-0.1,0.7l-0.5-0.1c0,0.2-0.1,0.5-0.2,0.6c-0.1,0.2-0.2,0.3-0.4,0.4
			c-0.1,0.1-0.2,0.1-0.3,0.1c-0.1,0-0.2,0.1-0.3,0.1c-0.1,0-0.3,0-0.4,0c-0.2,0-0.3,0-0.5,0L75.4,119.3z M76.6,116.9
			c-0.2,0-0.3,0-0.4,0.1c-0.1,0.1-0.2,0.2-0.2,0.4c0,0.1,0,0.1,0,0.2c0,0.1,0.1,0.1,0.1,0.2s0.1,0.1,0.2,0.1s0.1,0,0.2,0l0.4,0
			l0-0.4c0-0.1,0-0.2,0-0.3c0-0.1,0-0.1,0-0.2c0-0.1,0-0.1-0.1-0.1c0,0-0.1-0.1-0.1-0.1C76.7,116.9,76.6,116.9,76.6,116.9
			C76.6,116.9,76.6,116.9,76.6,116.9z"/>
		<path class="st1" d="M77.6,118.7l0-0.7l1.6,0.1c0,0,0.1,0,0.1,0s0.1,0,0.2,0c0,0,0.1,0,0.1,0s0.1-0.1,0.1-0.1c0-0.1,0-0.2-0.1-0.3
			c-0.1-0.1-0.1-0.2-0.2-0.4c-0.1-0.1-0.2-0.3-0.3-0.4c-0.1-0.1-0.2-0.3-0.3-0.4c-0.1-0.1-0.2-0.2-0.3-0.3c-0.1-0.1-0.2-0.2-0.2-0.2
			l0.1-0.6l2.4-1l0.2,0.6l-2,0.8c0.1,0.1,0.1,0.1,0.2,0.2c0.1,0.1,0.2,0.2,0.3,0.3c0.1,0.1,0.2,0.2,0.3,0.3c0.1,0.1,0.2,0.2,0.2,0.3
			c0.1,0.1,0.1,0.2,0.2,0.3s0.1,0.2,0.1,0.3c0,0.1,0,0.2,0.1,0.2c0,0.1,0,0.1,0,0.2c0,0.1,0,0.1,0,0.2c0,0.1,0,0.1-0.1,0.1
			c0,0-0.1,0.1-0.1,0.2c0,0.1-0.1,0.1-0.2,0.2s-0.2,0.1-0.3,0.1c-0.1,0-0.3,0-0.4,0L77.6,118.7z"/>
		<path class="st1" d="M90.2,118c-0.4,0-0.7,0-0.9-0.2c-0.1,0.1-0.2,0.2-0.3,0.2c-0.1,0.1-0.2,0.1-0.4,0.1c-0.3,0-0.6,0-0.8-0.2
			c-0.1,0.1-0.2,0.2-0.3,0.2c-0.1,0.1-0.2,0.1-0.4,0.1c-0.1,0-0.2,0-0.3,0s-0.2,0-0.2,0l0,0.1c0.1,0.5,0,0.9-0.3,1.2
			c-0.2,0.3-0.6,0.4-1.1,0.5l-0.6,0.1c-0.1,0-0.3,0-0.4,0c-0.1,0-0.3-0.1-0.4-0.1c-0.1,0-0.2-0.1-0.4-0.2c-0.1-0.1-0.2-0.2-0.3-0.3
			c-0.1-0.1-0.2-0.3-0.3-0.4c-0.1-0.2-0.1-0.3-0.1-0.5c0-0.1,0-0.2,0-0.4c0-0.1,0-0.2,0-0.4c0-0.1,0-0.3,0.1-0.4
			c0-0.1,0.1-0.3,0.1-0.5l0.6,0.2c0,0.1-0.1,0.3-0.1,0.4c0,0.1-0.1,0.2-0.1,0.3c0,0.1,0,0.2,0,0.3c0,0.1,0,0.2,0,0.3
			c0,0.1,0,0.2,0.1,0.3c0,0.1,0.1,0.2,0.2,0.3c0.1,0.1,0.2,0.2,0.4,0.3c0.2,0.1,0.3,0.1,0.5,0.1l0.6-0.1c0.2,0,0.3-0.1,0.5-0.1
			c0.1-0.1,0.2-0.1,0.3-0.2c0.1-0.1,0.1-0.2,0.1-0.3c0-0.1,0-0.2,0-0.3l-0.2-1.9l0.7-0.1l0.1,0.5c0,0.2,0,0.3,0.1,0.4
			c0,0.1,0.1,0.1,0.1,0.2c0.1,0,0.1,0.1,0.2,0.1c0.1,0,0.1,0,0.2,0c0,0,0.1,0,0.1,0s0.1,0,0.1-0.1s0.1-0.1,0.1-0.1
			c0-0.1,0-0.1,0-0.2l-0.1-0.8l0.7-0.1l0.1,0.8c0,0.1,0.1,0.2,0.2,0.3c0.1,0.1,0.2,0.1,0.4,0.1c0,0,0.1,0,0.1,0c0,0,0.1,0,0.1-0.1
			c0,0,0.1-0.1,0.1-0.1c0-0.1,0-0.1,0-0.2l-0.1-0.8l0.7-0.1l0.1,0.8c0,0.1,0.1,0.2,0.2,0.3c0.1,0.1,0.2,0.1,0.4,0l0.2,0l0.1,0.7
			L90.2,118z M87.4,115.4l-0.4,0.5l-0.5-0.4l0.4-0.5L87.4,115.4z M87.8,114.5l-0.4,0.5l-0.5-0.4l0.4-0.5L87.8,114.5z M88.5,115.2
			l-0.4,0.5l-0.5-0.4l0.4-0.5L88.5,115.2z"/>
		<path class="st1" d="M91.3,115.2C91.3,115.2,91.4,115.3,91.3,115.2c0.1,0.1,0.1,0.2,0.1,0.2c0,0.1,0.1,0.1,0.1,0.2
			c0,0.1,0.1,0.2,0.1,0.2c0,0.1,0.1,0.2,0.1,0.2c0,0.1,0,0.1,0.1,0.2c0,0.2,0.1,0.3,0,0.5c0,0.1-0.1,0.3-0.2,0.4
			c-0.1,0.1-0.2,0.2-0.3,0.3c-0.1,0.1-0.2,0.1-0.3,0.2l-1.1,0.3l-0.2-0.7l1.2-0.3c0,0,0.1,0,0.1,0c0,0,0.1,0,0.1-0.1
			c0,0,0.1-0.1,0.1-0.1c0-0.1,0-0.1,0-0.2c0,0,0-0.1,0-0.1c0-0.1,0-0.1-0.1-0.2c0-0.1-0.1-0.1-0.1-0.2s-0.1-0.1-0.1-0.2
			s-0.1-0.1-0.1-0.2c0,0,0-0.1-0.1-0.1L91.3,115.2z M90.8,119.2l-0.6-0.3l0.3-0.6l0.6,0.3L90.8,119.2z M91.9,119l-0.6-0.3l0.3-0.6
			l0.6,0.3L91.9,119z"/>
		<path class="st1" d="M95.3,116.4l-0.2,0.1c-0.2,0.1-0.5,0-0.8-0.1c0,0.1-0.1,0.2-0.2,0.2c-0.1,0.1-0.1,0.1-0.2,0.2
			c-0.1,0.1-0.2,0.1-0.3,0.1c-0.1,0-0.2,0.1-0.3,0.1c-0.1,0-0.1,0-0.2,0c-0.1,0-0.2,0-0.2,0s-0.2,0-0.3,0c-0.1,0-0.3,0-0.4,0l0-0.7
			c0.1,0,0.2,0,0.4,0c0.1,0,0.2,0,0.4,0c0.1,0,0.2,0,0.3-0.1c0,0,0.1,0,0.1,0c0.1,0,0.1,0,0.2-0.1s0.1-0.1,0.2-0.1s0.1-0.1,0.1-0.2
			c0,0,0,0,0-0.1c0,0,0,0,0-0.1c0,0,0,0-0.1-0.1c0,0-0.1-0.1-0.1-0.1l-1.3-1l0.4-0.5l1.4,1.1c0.1,0.1,0.2,0.1,0.2,0.2
			c0.1,0.1,0.2,0.1,0.2,0.2c0.1,0,0.1,0.1,0.2,0.1c0.1,0,0.1,0,0.2,0l0.2-0.1L95.3,116.4z"/>
		<path class="st1" d="M94.3,113.1l0.3-0.6l0.6,0.3l-0.3,0.6L94.3,113.1z M95.7,113.8C95.7,113.8,95.7,113.8,95.7,113.8
			c0.1,0.1,0.1,0.2,0.1,0.2c0,0.1,0.1,0.1,0.1,0.2c0,0.1,0.1,0.1,0.1,0.2c0,0.1,0.1,0.1,0.1,0.2c0,0.1,0.1,0.1,0.1,0.2
			c0.1,0.2,0.1,0.3,0.1,0.5c0,0.1,0,0.3-0.1,0.4c-0.1,0.1-0.1,0.2-0.2,0.3c-0.1,0.1-0.2,0.1-0.3,0.2l-0.7,0.3l-0.2-0.6l0.7-0.3
			c0,0,0,0,0.1,0c0,0,0.1,0,0.1-0.1c0,0,0-0.1,0.1-0.2c0-0.1,0-0.1,0-0.2c0,0,0-0.1-0.1-0.1c0-0.1-0.1-0.1-0.1-0.2
			c0-0.1-0.1-0.1-0.1-0.2c0-0.1-0.1-0.1-0.1-0.2c0-0.1-0.1-0.1-0.1-0.1c0,0-0.1-0.1-0.1-0.1L95.7,113.8z"/>
		<path class="st1" d="M97.8,115.4l-0.6,0.3l-1.5-3.6l0.6-0.3L97.8,115.4z"/>
		<path class="st1" d="M99.6,111.2l0.2-0.7l0.7,0.2l-0.2,0.7L99.6,111.2z M101.7,113.3c0.1,0.2,0.2,0.4,0.2,0.7s0,0.4-0.1,0.6
			c-0.1,0.2-0.2,0.4-0.3,0.5c-0.1,0.2-0.3,0.3-0.6,0.4l-0.3,0.2l-0.3-0.6l0.3-0.2c0.2-0.1,0.3-0.2,0.4-0.3s0.2-0.2,0.2-0.3
			c0-0.1,0-0.2,0-0.4s-0.1-0.3-0.2-0.4l-0.8-1.5l0.6-0.3L101.7,113.3z"/>
		<path class="st1" d="M102.8,113.8c0.1-0.1,0.2-0.1,0.3-0.2c0.1-0.1,0.2-0.1,0.2-0.2c0.1-0.1,0.1-0.1,0.2-0.2
			c0-0.1,0.1-0.1,0.1-0.2c0-0.1,0-0.2,0-0.3c0-0.1,0-0.2-0.1-0.3l-0.4,0.2c-0.1,0-0.2,0.1-0.2,0.1c-0.1,0-0.2,0.1-0.3,0.1
			c-0.1,0-0.2,0-0.3,0c-0.1,0-0.2,0-0.3-0.1s-0.2-0.1-0.3-0.2c-0.1-0.1-0.2-0.2-0.2-0.3c-0.1-0.1-0.1-0.2-0.1-0.3
			c0-0.1-0.1-0.2-0.1-0.3s0-0.2,0-0.2c0-0.1,0-0.1,0-0.2c0-0.1,0.1-0.3,0.2-0.4c0.1-0.1,0.2-0.2,0.3-0.3c0.2-0.1,0.3-0.2,0.5-0.2
			c0.2,0,0.3,0,0.4,0.1c0.1,0.1,0.3,0.1,0.4,0.3s0.2,0.3,0.3,0.4l0.5,0.8c0.1,0.2,0.2,0.4,0.2,0.6c0,0.2,0,0.4-0.1,0.6
			c0,0.1-0.1,0.2-0.1,0.3c-0.1,0.1-0.1,0.2-0.2,0.3c-0.1,0.1-0.2,0.2-0.3,0.3c-0.1,0.1-0.3,0.2-0.4,0.3L102.8,113.8z M102.2,111.2
			c-0.1,0.1-0.2,0.2-0.2,0.3c0,0.1,0,0.3,0.1,0.5c0,0.1,0.1,0.1,0.1,0.2c0.1,0,0.1,0,0.2,0.1s0.1,0,0.2,0s0.1,0,0.2-0.1l0.4-0.2
			l-0.2-0.3c-0.1-0.1-0.1-0.2-0.2-0.2s-0.1-0.1-0.2-0.1c0,0-0.1,0-0.1-0.1c0,0-0.1,0-0.1,0C102.3,111.2,102.3,111.2,102.2,111.2
			C102.3,111.2,102.2,111.2,102.2,111.2z"/>
		<path class="st1" d="M105.8,110.7c0.1,0.2,0.2,0.4,0.3,0.6c0,0.2,0,0.4,0,0.6c0,0.2-0.1,0.4-0.2,0.6c-0.1,0.2-0.3,0.3-0.5,0.5
			l-0.3,0.2l-0.4-0.6l0.3-0.2c0.1-0.1,0.3-0.2,0.3-0.3c0.1-0.1,0.1-0.2,0.2-0.3c0-0.1,0-0.2,0-0.4c0-0.1-0.1-0.3-0.2-0.4l-0.9-1.4
			l0.6-0.4L105.8,110.7z"/>
		<path class="st1" d="M110.3,104.6l0.5,0.6c0,0,0.1,0.1,0.1,0.1c0,0,0.1,0,0.1,0c0,0,0.1,0,0.1,0c0,0,0.1,0,0.1,0c0,0,0.1,0,0.1,0
			c0,0,0,0,0,0l0.1-0.1l0.5,0.5l-0.1,0.1c0,0-0.1,0.1-0.2,0.1c-0.1,0-0.1,0.1-0.2,0.1c-0.1,0-0.1,0.1-0.2,0.1c-0.1,0-0.1,0-0.2,0
			c0,0.3-0.2,0.5-0.4,0.7l-2.3,2.1c-0.1,0.1-0.2,0.2-0.3,0.2c-0.1,0-0.2,0.1-0.4,0.1c0,0-0.1,0-0.2,0c-0.1,0-0.1,0-0.2-0.1
			c-0.1,0-0.1-0.1-0.2-0.1c-0.1,0-0.1-0.1-0.2-0.2c-0.1-0.1-0.1-0.1-0.2-0.2c-0.1-0.1-0.1-0.2-0.2-0.3c0-0.1-0.1-0.2-0.1-0.2
			c0-0.1-0.1-0.1-0.1-0.1l0.3-0.1l0.3-0.1c0,0,0,0.1,0.1,0.2c0,0.1,0.1,0.1,0.1,0.2c0,0.1,0.1,0.1,0.1,0.2c0,0.1,0.1,0.1,0.1,0.1
			c0.1,0.1,0.1,0.1,0.2,0.1c0.1,0,0.1,0,0.1,0c0,0,0.1,0,0.1,0c0,0,0.1,0,0.1-0.1l2.3-2.1c0.1-0.1,0.1-0.1,0.2-0.2
			c0-0.1,0.1-0.1,0.1-0.2c0-0.1,0-0.1-0.1-0.2l-0.6-0.7L110.3,104.6z M107.7,106.7l-0.7,0l0-0.6l0.7,0L107.7,106.7z M108.6,105.9
			l-0.7,0l0-0.7l0.7,0L108.6,105.9z"/>
		<path class="st1" d="M111.7,105.8l-0.5-0.5l1.1-1.2c0,0,0-0.1,0.1-0.1c0,0,0.1-0.1,0.1-0.1c0,0,0-0.1,0-0.1c0,0,0-0.1,0-0.1
			c-0.1-0.1-0.1-0.1-0.3-0.1c-0.1,0-0.3-0.1-0.4-0.1c-0.2,0-0.3,0-0.5,0c-0.2,0-0.3,0-0.5,0s-0.3,0-0.4,0c-0.1,0-0.2,0-0.3,0
			l-0.4-0.5l0.8-2.5l0.6,0.2l-0.7,2.1c0.1,0,0.2,0,0.3,0s0.2,0,0.4,0s0.3,0,0.4,0c0.1,0,0.3,0,0.4,0c0.1,0,0.3,0,0.4,0
			c0.1,0,0.2,0,0.3,0.1c0.1,0,0.1,0.1,0.2,0.1c0.1,0,0.1,0.1,0.2,0.1c0.1,0,0.1,0.1,0.1,0.1c0,0,0.1,0.1,0.1,0.1c0,0,0,0.1,0.1,0.2
			s0,0.2,0,0.3c0,0.1,0,0.2-0.1,0.3s-0.1,0.2-0.3,0.4L111.7,105.8z"/>
		<path class="st1" d="M115.2,101.6L115.2,101.6c-0.1,0.1-0.2,0.2-0.2,0.2c0,0-0.1,0.1-0.2,0.1c0.2,0.2,0.3,0.3,0.4,0.5
			c0.1,0.2,0.2,0.4,0.2,0.6c0,0.2,0,0.4-0.1,0.6c-0.1,0.2-0.2,0.4-0.3,0.6l-0.2,0.3l-0.5-0.4l0.2-0.3c0.1-0.1,0.2-0.3,0.2-0.4
			c0-0.1,0.1-0.2,0.1-0.4s-0.1-0.2-0.1-0.3c-0.1-0.1-0.2-0.2-0.3-0.3l-1.3-1l0.4-0.5l0.6,0.5c0.1,0.1,0.1,0.1,0.2,0.1s0.1,0,0.2,0
			c0.1,0,0.1,0,0.1-0.1c0,0,0.1,0,0.1-0.1l0.1-0.1L115.2,101.6z"/>
		<path class="st1" d="M113.7,97l0.1,0.6l-0.6,0.1l-0.1-0.6L113.7,97z M114,97.9l0.1,0.6l-0.6,0.1l-0.1-0.6L114,97.9z M114.6,96.9
			l0.1,0.6l-0.6,0.1l-0.1-0.7L114.6,96.9z M116.2,100.1c-0.2,0.3-0.4,0.5-0.7,0.5c0,0.1,0,0.3,0,0.4c0,0.1-0.1,0.2-0.2,0.3l-0.3,0.5
			l-0.6-0.4l0.3-0.5c0,0,0,0,0-0.1c0,0,0-0.1,0-0.1c0,0,0-0.1,0-0.2c0-0.1-0.1-0.1-0.2-0.2L114,100l0.4-0.6l0.6,0.4
			c0.1,0.1,0.2,0.1,0.3,0.1c0.1,0,0.2-0.1,0.3-0.2c0,0,0,0,0-0.1c0,0,0-0.1,0-0.1c0-0.1,0-0.1,0-0.2c0-0.1-0.1-0.1-0.2-0.2l-0.6-0.4
			l0.4-0.6l0.6,0.4c0.1,0.1,0.2,0.1,0.3,0.1s0.2-0.1,0.3-0.2c0,0,0,0,0-0.1c0,0,0-0.1,0-0.1c0-0.1,0-0.1-0.1-0.2
			c0-0.1-0.1-0.1-0.2-0.2c0,0-0.1,0-0.1-0.1c-0.1,0-0.1-0.1-0.2-0.1c-0.1,0-0.1-0.1-0.2-0.1c-0.1,0-0.1,0-0.2-0.1s-0.1,0-0.2-0.1
			c0,0-0.1,0-0.1,0l0.2-0.7c0,0,0,0,0.1,0c0,0,0.1,0,0.2,0.1c0.1,0,0.1,0.1,0.2,0.1c0.1,0,0.2,0.1,0.2,0.1c0.1,0,0.2,0.1,0.2,0.1
			s0.1,0.1,0.2,0.1c0.2,0.1,0.3,0.2,0.4,0.3c0.1,0.1,0.1,0.3,0.2,0.4c0,0.1,0,0.3,0,0.4c0,0.1-0.1,0.2-0.1,0.4
			c-0.2,0.3-0.4,0.5-0.7,0.5c0,0.1,0,0.3,0,0.4C116.4,99.9,116.3,100,116.2,100.1z"/>
	</g>
</g>
<g id="RoozAndish_copy">
	<g>
		<path class="st1" d="M46.8,95.6C46.9,95.6,46.9,95.6,46.8,95.6c0.1-0.1,0.2-0.1,0.2-0.1c0,0,0.1,0,0.1-0.1c0,0,0.1,0,0.1,0l0,0
			c0.1,0,0.2-0.1,0.3-0.1s0.2-0.1,0.3-0.1c0.2-0.1,0.4-0.2,0.6-0.3s0.4-0.2,0.6-0.3c0.2-0.1,0.4-0.2,0.6-0.4
			c0.2-0.1,0.4-0.3,0.6-0.5l0.4,0.5c-0.2,0.2-0.5,0.4-0.7,0.5c-0.2,0.2-0.4,0.3-0.7,0.4c-0.2,0.1-0.4,0.2-0.6,0.3
			c-0.2,0.1-0.4,0.2-0.6,0.3c-0.1,0-0.2,0.1-0.3,0.1c-0.1,0-0.2,0.1-0.3,0.1c0,0-0.1,0-0.1,0c0,0-0.1,0-0.1,0c0,0-0.1,0-0.1,0.1
			c0,0-0.1,0-0.1,0L46.8,95.6z"/>
		<path class="st1" d="M52.9,98.6c0,0-0.1,0.1-0.2,0.1c-0.1,0.1-0.1,0.1-0.2,0.2c-0.1,0.1-0.1,0.1-0.2,0.2c-0.1,0.1-0.1,0.1-0.2,0.1
			c-0.1,0.1-0.2,0.1-0.4,0.1c-0.1,0-0.2,0-0.4,0c-0.1,0-0.2-0.1-0.3-0.1c-0.1-0.1-0.2-0.2-0.3-0.3c0,0-0.1-0.1-0.1-0.2
			c0-0.1,0-0.1,0-0.2s0-0.1,0-0.2c0-0.1,0-0.2,0.1-0.2c-0.1,0-0.2-0.1-0.3-0.1c-0.1-0.1-0.2-0.1-0.2-0.2l0,0c0,0,0,0-0.1-0.1
			c0,0,0-0.1-0.1-0.1c0,0,0-0.1-0.1-0.1c0,0,0-0.1,0-0.1c-0.2,0.2-0.5,0.3-0.7,0.4c-0.2,0.1-0.4,0.2-0.6,0.3l-0.5,0.3l-0.3-0.6
			l0.5-0.3c0.2-0.1,0.4-0.2,0.6-0.4s0.5-0.3,0.7-0.5c0.2-0.2,0.5-0.3,0.7-0.5c0.2-0.2,0.4-0.4,0.6-0.6l0.5,0.5c0,0-0.1,0.1-0.1,0.1
			c0,0-0.1,0.1-0.1,0.1c0,0-0.1,0.1-0.1,0.1c0,0-0.1,0.1-0.2,0.1c-0.1,0-0.1,0.1-0.2,0.2c-0.1,0.1-0.1,0.1-0.1,0.2
			c0,0.1-0.1,0.1-0.1,0.2c0,0.1,0,0.1,0,0.2c0,0,0.1,0.1,0.1,0.1c0,0,0.1,0,0.2,0c0.1,0,0.1,0,0.2,0c0.1,0,0.2-0.1,0.3-0.1
			c0,0,0.1,0,0.1-0.1c0,0,0.1,0,0.1,0c0,0,0.1,0,0.1-0.1c0,0,0.1-0.1,0.1-0.1l0.4,0.6c-0.2,0.1-0.3,0.2-0.5,0.3
			c-0.1,0.1-0.2,0.2-0.3,0.3c-0.1,0.1-0.1,0.1-0.1,0.2c0,0.1,0,0.1,0,0.2c0,0.1,0.1,0.1,0.1,0.1c0.1,0,0.1,0,0.2-0.1
			c0.1,0,0.1-0.1,0.2-0.1c0.1,0,0.1-0.1,0.2-0.1c0.1,0,0.1-0.1,0.2-0.1c0,0,0.1-0.1,0.1-0.1L52.9,98.6z"/>
		<path class="st1" d="M54.4,100.3c0,0,0,0.1,0,0.1c0,0.1,0,0.2,0,0.3c0,0.1,0,0.3-0.1,0.4c0,0.2-0.1,0.3-0.1,0.5
			c0,0.2-0.1,0.4-0.2,0.6c-0.1,0.2-0.1,0.4-0.2,0.6c-0.1,0.2-0.2,0.3-0.3,0.5c-0.1,0.2-0.3,0.3-0.4,0.4c-0.1,0.1-0.2,0.1-0.3,0.2
			c-0.1,0-0.2,0.1-0.3,0.1c-0.1,0-0.2,0-0.2,0c-0.1,0-0.1,0-0.2,0c-0.1,0-0.2-0.1-0.3-0.1c-0.1-0.1-0.2-0.2-0.3-0.2
			c-0.1-0.1-0.1-0.2-0.2-0.3c0-0.1-0.1-0.2,0-0.3c-0.1,0-0.2-0.1-0.3-0.1c-0.1-0.1-0.2-0.1-0.2-0.2c-0.1-0.1-0.1-0.1-0.1-0.2
			c0-0.1-0.1-0.2-0.1-0.3c0-0.1,0-0.2,0-0.3c0-0.1,0-0.2,0.1-0.3c0-0.1,0.1-0.1,0.1-0.2s0.1-0.1,0.1-0.2c0,0,0.1-0.1,0.1-0.1
			c0,0,0.1-0.1,0.1-0.1c0.1-0.1,0.3-0.2,0.4-0.3c0.2-0.1,0.3-0.1,0.5-0.2c0.2,0,0.3-0.1,0.5-0.1c0.2,0,0.3,0,0.5,0s0.3,0,0.4,0
			c0.1,0,0.2,0,0.3,0l0-0.3L54.4,100.3z M52.3,103.4c0.1,0,0.1,0,0.2,0c0.1,0,0.1,0,0.2-0.1c0.1-0.1,0.2-0.2,0.2-0.2
			c0.1-0.1,0.1-0.2,0.2-0.3s0.1-0.2,0.2-0.4c0-0.1,0.1-0.3,0.1-0.4c0-0.1,0.1-0.3,0.1-0.4c0-0.1,0.1-0.2,0.1-0.4c-0.1,0-0.2,0-0.3,0
			c-0.1,0-0.2,0-0.4,0c-0.1,0-0.3,0-0.4,0c-0.1,0-0.3,0-0.4,0.1c-0.1,0-0.3,0.1-0.4,0.1s-0.2,0.1-0.3,0.2c-0.1,0-0.1,0.1-0.1,0.1
			c0,0.1-0.1,0.1-0.1,0.2c0,0.1,0,0.1,0,0.2c0,0.1,0,0.1,0.1,0.2c0,0,0.1,0.1,0.1,0.1c0,0,0.1,0,0.1,0.1c0,0,0.1,0,0.1,0
			c0,0,0.1,0,0.1-0.1c0,0,0.1-0.1,0.1-0.1c0,0,0.1-0.1,0.1-0.1l0.5,0.5c0,0,0,0,0,0c0,0,0,0,0,0c0,0,0,0-0.1,0.1
			c0,0-0.1,0.1-0.1,0.1l0,0c0,0-0.1,0-0.1,0.1c0,0-0.1,0-0.1,0.1c0,0.1-0.1,0.1,0,0.2c0,0.1,0,0.1,0.1,0.2c0,0,0.1,0.1,0.1,0.1
			C52.2,103.3,52.2,103.3,52.3,103.4z"/>
		<path class="st1" d="M57,103.5c0,0,0,0.1,0,0.1c0,0.1,0,0.2,0,0.3c0,0.1,0,0.3,0,0.4c0,0.2,0,0.3,0,0.5c0,0.2,0,0.4-0.1,0.6
			c0,0.2-0.1,0.4-0.2,0.6c-0.1,0.2-0.1,0.4-0.2,0.5c-0.1,0.2-0.2,0.3-0.4,0.5c-0.1,0.1-0.2,0.2-0.3,0.2c-0.1,0.1-0.2,0.1-0.3,0.1
			s-0.2,0-0.2,0c-0.1,0-0.1,0-0.2,0c-0.1,0-0.2-0.1-0.3-0.1c-0.1-0.1-0.2-0.1-0.3-0.2c-0.1-0.1-0.1-0.2-0.2-0.3
			c0-0.1-0.1-0.2-0.1-0.3c-0.1,0-0.2,0-0.3-0.1c-0.1-0.1-0.2-0.1-0.3-0.2c-0.1-0.1-0.1-0.1-0.2-0.2c0-0.1-0.1-0.2-0.1-0.2
			c0-0.1,0-0.2,0-0.3c0-0.1,0-0.2,0-0.3c0-0.1,0.1-0.2,0.1-0.2c0-0.1,0.1-0.1,0.1-0.2c0-0.1,0.1-0.1,0.1-0.1c0,0,0.1-0.1,0.1-0.1
			c0.1-0.1,0.3-0.2,0.4-0.3c0.1-0.1,0.3-0.2,0.4-0.2c0.2-0.1,0.3-0.1,0.5-0.1c0.2,0,0.3-0.1,0.4-0.1c0.1,0,0.3,0,0.4,0
			c0.1,0,0.2,0,0.3,0l0-0.3L57,103.5z M55.3,106.7c0.1,0,0.1,0,0.2,0c0.1,0,0.1-0.1,0.2-0.1c0.1-0.1,0.2-0.2,0.2-0.3
			c0.1-0.1,0.1-0.2,0.2-0.3c0-0.1,0.1-0.2,0.1-0.4c0-0.1,0.1-0.3,0.1-0.4c0-0.1,0-0.3,0-0.4c0-0.1,0-0.3,0-0.4c-0.1,0-0.2,0-0.3,0
			c-0.1,0-0.2,0-0.4,0c-0.1,0-0.3,0-0.4,0.1c-0.1,0-0.3,0.1-0.4,0.1s-0.2,0.1-0.4,0.2c-0.1,0.1-0.2,0.1-0.3,0.2c0,0-0.1,0.1-0.1,0.2
			c0,0.1,0,0.1-0.1,0.2c0,0.1,0,0.1,0,0.2c0,0.1,0,0.1,0.1,0.1c0,0,0.1,0.1,0.1,0.1c0,0,0.1,0,0.1,0c0,0,0.1,0,0.1,0
			c0,0,0.1-0.1,0.1-0.1c0,0,0.1-0.1,0.1-0.1c0,0,0.1-0.1,0.1-0.1l0.5,0.4c0,0,0,0,0,0c0,0,0,0,0,0c0,0,0,0-0.1,0.1
			c0,0-0.1,0.1-0.1,0.1l0,0c0,0,0,0-0.1,0.1c0,0-0.1,0.1-0.1,0.1c0,0.1,0,0.1,0,0.2c0,0.1,0,0.1,0.1,0.2c0,0,0.1,0.1,0.1,0.1
			C55.2,106.7,55.2,106.7,55.3,106.7z"/>
		<path class="st1" d="M60.7,107.2c0,0,0,0.1,0,0.1c0,0.1-0.1,0.1-0.1,0.2c0,0.1-0.1,0.2-0.1,0.2c-0.1,0.1-0.1,0.2-0.2,0.2
			c-0.1,0.1-0.2,0.3-0.4,0.3c-0.1,0.1-0.3,0.1-0.4,0.1c-0.1,0-0.3,0-0.4-0.1c-0.1,0-0.2-0.1-0.3-0.2c-0.1-0.1-0.2-0.2-0.2-0.3
			c-0.1-0.1-0.1-0.2-0.1-0.3c-0.1,0.1-0.2,0.3-0.3,0.4s-0.2,0.3-0.3,0.4c-0.1,0.1-0.2,0.3-0.4,0.4c-0.1,0.2-0.3,0.3-0.4,0.5
			l-0.5-0.4l0.4-0.5c0.1-0.2,0.3-0.3,0.4-0.5c0.1-0.2,0.3-0.4,0.4-0.6c0.1-0.2,0.3-0.5,0.4-0.7c0.1-0.3,0.3-0.5,0.4-0.8l0.6,0.3
			l-0.1,0.3c0,0,0,0.1,0,0.1c0,0.1,0,0.1-0.1,0.2s0,0.2,0,0.3c0,0.1,0,0.2,0,0.3c0,0.1,0,0.2,0.1,0.3s0.1,0.2,0.2,0.2
			c0,0,0,0,0.1,0.1c0,0,0.1,0,0.1,0c0,0,0.1,0,0.2,0c0.1,0,0.1-0.1,0.2-0.1c0,0,0.1-0.1,0.1-0.1c0-0.1,0.1-0.1,0.1-0.2
			c0-0.1,0.1-0.1,0.1-0.2c0-0.1,0-0.1,0.1-0.1L60.7,107.2z"/>
		<path class="st1" d="M62.4,113.2c-0.2-0.1-0.3-0.2-0.4-0.3c-0.1-0.1-0.2-0.2-0.3-0.3c-0.1-0.1-0.1-0.2-0.1-0.3c0-0.1,0-0.2,0-0.3
			c0-0.1,0.1-0.2,0.1-0.3c0.1-0.1,0.1-0.2,0.2-0.4l1.4-2.2l0.6,0.4l-1.4,2.2c-0.1,0.1-0.1,0.2-0.2,0.3c0,0.1-0.1,0.2,0,0.2
			c0,0.1,0,0.1,0.1,0.2c0.1,0.1,0.2,0.1,0.3,0.2L62.4,113.2z"/>
		<path class="st1" d="M64.8,111.8c0.2,0.1,0.3,0.2,0.4,0.3c0.1,0.1,0.2,0.3,0.2,0.4c0,0.1,0,0.3,0,0.5c0,0.2-0.1,0.3-0.2,0.5
			c0,0.1-0.1,0.2-0.1,0.2c0,0.1,0,0.1,0.1,0.2c0,0,0.1,0.1,0.1,0.1c0,0,0.1,0,0.1,0.1l0.1,0l-0.3,0.6l-0.1,0
			c-0.1-0.1-0.2-0.1-0.3-0.2c-0.1-0.1-0.1-0.2-0.2-0.3c-0.1,0-0.2,0.1-0.2,0.1c-0.1,0-0.2,0-0.2,0c-0.1,0-0.1,0-0.2-0.1
			c-0.1,0-0.1,0-0.1-0.1c-0.1,0-0.2-0.1-0.2-0.1c-0.1-0.1-0.1-0.1-0.2-0.2c-0.1-0.1-0.1-0.1-0.2-0.2c-0.1-0.1-0.1-0.2-0.2-0.3
			c-0.1,0-0.2,0.1-0.3,0c-0.1,0-0.2,0-0.3-0.1l-0.3-0.2l0.3-0.6l0.3,0.2c0,0,0.1,0,0.1,0c0,0,0.1,0,0.1,0c0,0,0.1-0.1,0.1-0.1
			c0,0,0.1-0.1,0.2-0.2c0.1-0.1,0.2-0.2,0.3-0.3s0.2-0.2,0.4-0.2c0.1-0.1,0.3-0.1,0.4-0.1C64.5,111.7,64.6,111.7,64.8,111.8z
			 M64.2,113.5C64.2,113.5,64.2,113.5,64.2,113.5c0.1,0,0.1,0,0.2,0c0,0,0.1,0,0.2-0.1s0.1-0.1,0.2-0.2c0,0,0-0.1,0.1-0.2
			c0-0.1,0-0.2,0-0.2c0-0.1,0-0.2-0.1-0.2c0-0.1-0.1-0.1-0.2-0.2c-0.1,0-0.2-0.1-0.2,0c-0.1,0-0.2,0.1-0.2,0.1
			c-0.1,0.1-0.1,0.1-0.2,0.2c-0.1,0.1-0.1,0.1-0.2,0.2c0,0.1,0.1,0.1,0.1,0.2c0,0.1,0.1,0.1,0.1,0.2s0.1,0.1,0.1,0.2
			C64.1,113.5,64.1,113.5,64.2,113.5z"/>
		<path class="st1" d="M64.9,116.1l-0.2-0.6l0.6-0.2l0.2,0.6L64.9,116.1z M67.8,115l-0.3,0.6l-0.4-0.2c-0.1-0.1-0.3-0.1-0.4-0.2
			c-0.1-0.1-0.2-0.2-0.2-0.3c-0.1,0-0.3,0-0.4,0c-0.1,0-0.3-0.1-0.5-0.1l-0.9-0.4l0.3-0.6l0.9,0.4c0.1,0,0.2,0.1,0.3,0.1
			c0.1,0,0.1,0,0.2,0c0,0,0.1,0,0.1-0.1c0,0,0-0.1,0.1-0.1l0.4-0.8l0.6,0.3l-0.3,0.8c0,0.1,0,0.1,0,0.2c0,0.1,0,0.1,0.1,0.1
			c0,0,0.1,0.1,0.1,0.1c0,0,0.1,0,0.1,0L67.8,115z M65.9,116.6l-0.2-0.6l0.6-0.2l0.2,0.6L65.9,116.6z"/>
		<path class="st1" d="M67.1,116.4l0.6-0.3l0.3,0.6l-0.6,0.3L67.1,116.4z M69.9,114.1C69.9,114.1,69.9,114.1,69.9,114.1
			c0,0.1,0,0.2,0,0.3c0,0.1,0,0.1,0,0.2c0,0.1,0,0.2,0,0.3c0,0.1,0,0.2-0.1,0.2c0,0.1,0,0.1-0.1,0.2c-0.1,0.2-0.1,0.3-0.3,0.4
			c-0.1,0.1-0.2,0.2-0.3,0.2c-0.1,0-0.3,0.1-0.4,0.1c-0.1,0-0.3,0-0.4-0.1l-1.1-0.4l0.2-0.6l1.1,0.4c0,0,0.1,0,0.1,0
			c0,0,0.1,0,0.1,0s0.1,0,0.1-0.1c0,0,0.1-0.1,0.1-0.2c0,0,0-0.1,0-0.1c0-0.1,0-0.1,0-0.2c0-0.1,0-0.1,0-0.2c0-0.1,0-0.1,0-0.2
			c0-0.1,0-0.1,0-0.2c0-0.1,0-0.1,0-0.1L69.9,114.1z M67.4,117.4l0.6-0.3l0.3,0.6l-0.6,0.3L67.4,117.4z M68.1,116.8l0.6-0.3l0.3,0.6
			l-0.6,0.3L68.1,116.8z"/>
		<path class="st1" d="M73.7,117.5l-0.1,0c-0.1,0-0.1,0-0.2-0.1s-0.1-0.1-0.2-0.1c-0.1,0.2-0.2,0.4-0.3,0.6
			c-0.1,0.2-0.3,0.3-0.4,0.4c-0.2,0.1-0.4,0.2-0.6,0.2c-0.2,0-0.4,0-0.7-0.1l-0.3-0.1l0.2-0.7l0.3,0.1c0.2,0,0.3,0.1,0.5,0.1
			c0.1,0,0.2,0,0.3-0.1c0.1-0.1,0.2-0.1,0.3-0.3s0.1-0.3,0.2-0.4l0.4-1.6l0.7,0.2l-0.2,0.8c0,0.1,0,0.2,0,0.2c0,0.1,0.1,0.1,0.1,0.1
			c0,0,0.1,0.1,0.1,0.1c0,0,0.1,0,0.1,0l0.1,0L73.7,117.5z"/>
		<path class="st1" d="M73.7,119l-0.4-0.5l0.5-0.4l0.4,0.5L73.7,119z M75.8,115.6C75.8,115.6,75.8,115.6,75.8,115.6
			c0,0.1,0,0.2,0,0.3c0,0.1,0,0.1,0,0.2s0,0.2,0,0.3c0,0.1,0,0.2,0,0.2c0,0.1,0,0.2,0,0.2c0,0.2-0.1,0.3-0.2,0.5
			c-0.1,0.1-0.2,0.2-0.3,0.3c-0.1,0.1-0.2,0.1-0.4,0.1c-0.1,0-0.3,0-0.4,0l-1.2-0.2l0.1-0.7l1.2,0.2c0,0,0.1,0,0.1,0
			c0,0,0.1,0,0.1,0c0,0,0.1-0.1,0.1-0.1c0,0,0.1-0.1,0.1-0.2c0,0,0-0.1,0-0.1c0-0.1,0-0.1,0-0.2c0-0.1,0-0.1,0-0.2
			c0-0.1,0-0.1,0-0.2c0-0.1,0-0.1,0-0.2c0-0.1,0-0.1,0-0.1L75.8,115.6z M74.9,119.2l-0.4-0.5l0.5-0.4l0.4,0.5L74.9,119.2z"/>
		<path class="st1" d="M76.2,118.7c0.1,0,0.3,0,0.4,0c0.1,0,0.2,0,0.3,0c0.1,0,0.2,0,0.2,0s0.1-0.1,0.2-0.1c0.1-0.1,0.1-0.1,0.2-0.2
			c0-0.1,0.1-0.2,0.1-0.3l-0.4,0c-0.1,0-0.2,0-0.3-0.1c-0.1,0-0.2-0.1-0.3-0.1s-0.2-0.1-0.2-0.2c-0.1-0.1-0.1-0.1-0.2-0.2
			s-0.1-0.2-0.1-0.3c0-0.1,0-0.2,0-0.4c0-0.1,0-0.2,0.1-0.3c0-0.1,0.1-0.2,0.1-0.2c0-0.1,0.1-0.1,0.1-0.2c0-0.1,0.1-0.1,0.1-0.1
			c0.1-0.1,0.3-0.2,0.4-0.2s0.3-0.1,0.5,0c0.2,0,0.4,0.1,0.5,0.2c0.1,0.1,0.2,0.2,0.3,0.3c0.1,0.1,0.1,0.3,0.1,0.4
			c0,0.2,0,0.3,0,0.5l0,0.4l0.5,0.1l-0.1,0.7l-0.5-0.1c0,0.2-0.1,0.5-0.2,0.6c-0.1,0.2-0.2,0.3-0.4,0.4c-0.1,0.1-0.2,0.1-0.3,0.1
			c-0.1,0-0.2,0.1-0.3,0.1c-0.1,0-0.3,0-0.4,0c-0.2,0-0.3,0-0.5,0L76.2,118.7z M77.4,116.3c-0.2,0-0.3,0-0.4,0.1
			c-0.1,0.1-0.2,0.2-0.2,0.4c0,0.1,0,0.1,0,0.2c0,0.1,0.1,0.1,0.1,0.2c0,0,0.1,0.1,0.2,0.1c0.1,0,0.1,0,0.2,0l0.4,0l0-0.4
			c0-0.1,0-0.2,0-0.3c0-0.1,0-0.1,0-0.2s0-0.1-0.1-0.1c0,0-0.1-0.1-0.1-0.1S77.4,116.4,77.4,116.3C77.4,116.3,77.4,116.3,77.4,116.3
			z"/>
		<path class="st1" d="M78.4,118.2l0-0.7l1.6,0.1c0,0,0.1,0,0.1,0c0.1,0,0.1,0,0.2,0c0,0,0.1,0,0.1,0c0,0,0.1-0.1,0.1-0.1
			c0-0.1,0-0.2-0.1-0.3c-0.1-0.1-0.1-0.2-0.2-0.4c-0.1-0.1-0.2-0.3-0.3-0.4c-0.1-0.1-0.2-0.3-0.3-0.4c-0.1-0.1-0.2-0.2-0.3-0.3
			c-0.1-0.1-0.2-0.2-0.2-0.2l0.1-0.6l2.4-1l0.2,0.6l-2,0.8c0.1,0.1,0.1,0.1,0.2,0.2c0.1,0.1,0.2,0.2,0.3,0.3
			c0.1,0.1,0.2,0.2,0.3,0.3c0.1,0.1,0.2,0.2,0.2,0.3c0.1,0.1,0.1,0.2,0.2,0.3s0.1,0.2,0.1,0.3c0,0.1,0,0.2,0.1,0.2
			c0,0.1,0,0.1,0,0.2c0,0.1,0,0.1,0,0.2c0,0.1,0,0.1,0,0.1c0,0-0.1,0.1-0.1,0.2c0,0.1-0.1,0.1-0.2,0.2c-0.1,0-0.2,0.1-0.3,0.1
			c-0.1,0-0.3,0-0.4,0L78.4,118.2z"/>
		<path class="st1" d="M90.8,117.2c-0.4,0.1-0.7,0-0.9-0.1c-0.1,0.1-0.2,0.2-0.3,0.3c-0.1,0.1-0.2,0.1-0.4,0.1
			c-0.3,0.1-0.6,0-0.8-0.1c-0.1,0.1-0.2,0.2-0.3,0.3c-0.1,0.1-0.2,0.1-0.4,0.1c-0.1,0-0.2,0-0.3,0c-0.1,0-0.2,0-0.2,0l0,0.1
			c0.1,0.5,0,0.9-0.2,1.2c-0.2,0.3-0.6,0.5-1.1,0.5l-0.6,0.1c-0.1,0-0.3,0-0.4,0c-0.1,0-0.3,0-0.4-0.1s-0.2-0.1-0.4-0.2
			s-0.2-0.2-0.3-0.3c-0.1-0.1-0.2-0.3-0.3-0.4s-0.1-0.3-0.2-0.5c0-0.1,0-0.2,0-0.4c0-0.1,0-0.2,0-0.4c0-0.1,0-0.3,0.1-0.4
			c0-0.1,0.1-0.3,0.1-0.5l0.6,0.2c0,0.1-0.1,0.3-0.1,0.4c0,0.1,0,0.2-0.1,0.3c0,0.1,0,0.2,0,0.3c0,0.1,0,0.2,0,0.3
			c0,0.1,0.1,0.2,0.1,0.3c0,0.1,0.1,0.2,0.2,0.3c0.1,0.1,0.2,0.2,0.4,0.3c0.2,0.1,0.3,0.1,0.5,0l0.6-0.1c0.2,0,0.3-0.1,0.5-0.1
			c0.1-0.1,0.2-0.1,0.3-0.2c0.1-0.1,0.1-0.2,0.1-0.3s0-0.2,0-0.3l-0.3-1.9l0.7-0.1l0.1,0.5c0,0.2,0.1,0.3,0.1,0.4
			c0,0.1,0.1,0.1,0.1,0.2c0.1,0,0.1,0.1,0.2,0.1c0.1,0,0.1,0,0.2,0c0,0,0.1,0,0.1,0c0,0,0.1,0,0.1-0.1c0,0,0.1-0.1,0.1-0.1
			c0-0.1,0-0.1,0-0.2l-0.1-0.8l0.7-0.1l0.1,0.8c0,0.1,0.1,0.2,0.2,0.3c0.1,0.1,0.2,0.1,0.4,0c0,0,0.1,0,0.1,0c0,0,0.1,0,0.1-0.1
			c0,0,0.1-0.1,0.1-0.1c0-0.1,0-0.1,0-0.2l-0.1-0.8l0.7-0.1l0.1,0.8c0,0.1,0.1,0.2,0.2,0.3s0.2,0.1,0.4,0l0.2,0l0.1,0.7L90.8,117.2z
			 M88,114.7l-0.4,0.5l-0.5-0.4l0.4-0.5L88,114.7z M88.4,113.8l-0.4,0.5l-0.5-0.4l0.4-0.5L88.4,113.8z M89.1,114.5l-0.4,0.5
			l-0.5-0.4l0.4-0.5L89.1,114.5z"/>
		<path class="st1" d="M91.9,114.4C91.9,114.4,91.9,114.4,91.9,114.4c0.1,0.1,0.1,0.2,0.1,0.2c0,0.1,0.1,0.1,0.1,0.2
			s0.1,0.2,0.1,0.2c0,0.1,0.1,0.2,0.1,0.2c0,0.1,0.1,0.1,0.1,0.2c0.1,0.2,0.1,0.3,0,0.5c0,0.2-0.1,0.3-0.1,0.4
			c-0.1,0.1-0.2,0.2-0.3,0.3c-0.1,0.1-0.2,0.1-0.3,0.2l-1.1,0.3l-0.2-0.7l1.1-0.3c0,0,0.1,0,0.1,0c0,0,0.1,0,0.1-0.1
			c0,0,0.1-0.1,0.1-0.1c0-0.1,0-0.1,0-0.2c0,0,0-0.1,0-0.1c0-0.1,0-0.1-0.1-0.2c0-0.1-0.1-0.1-0.1-0.2c0-0.1-0.1-0.1-0.1-0.2
			c0-0.1-0.1-0.1-0.1-0.1c0,0,0-0.1-0.1-0.1L91.9,114.4z M91.5,118.4l-0.6-0.3l0.3-0.6l0.6,0.3L91.5,118.4z M92.6,118.1l-0.6-0.3
			l0.3-0.6l0.6,0.3L92.6,118.1z"/>
		<path class="st1" d="M95.8,115.4l-0.2,0.1c-0.2,0.1-0.5,0.1-0.8-0.1c0,0.1-0.1,0.2-0.1,0.2c-0.1,0.1-0.1,0.1-0.2,0.2
			s-0.2,0.1-0.3,0.2c-0.1,0-0.2,0.1-0.3,0.1c-0.1,0-0.1,0-0.2,0.1c-0.1,0-0.2,0-0.2,0s-0.2,0-0.3,0c-0.1,0-0.3,0-0.4,0l0-0.7
			c0.1,0,0.2,0,0.4,0s0.2,0,0.4,0c0.1,0,0.2,0,0.3-0.1c0,0,0.1,0,0.1,0c0.1,0,0.1,0,0.2-0.1c0.1,0,0.1-0.1,0.2-0.1
			c0,0,0.1-0.1,0.1-0.2c0,0,0,0,0-0.1c0,0,0,0,0-0.1c0,0,0,0-0.1-0.1c0,0-0.1-0.1-0.1-0.1l-1.4-0.9l0.4-0.5l1.4,1.1
			c0.1,0.1,0.2,0.1,0.2,0.2c0.1,0.1,0.2,0.1,0.2,0.2s0.2,0.1,0.2,0.1c0.1,0,0.1,0,0.2,0l0.2-0.1L95.8,115.4z"/>
		<path class="st1" d="M94.7,112.2l0.3-0.7l0.7,0.3l-0.3,0.7L94.7,112.2z M96.1,112.8C96.1,112.8,96.1,112.8,96.1,112.8
			c0.1,0.1,0.1,0.2,0.2,0.2c0,0.1,0.1,0.1,0.1,0.2c0,0.1,0.1,0.1,0.1,0.2c0,0.1,0.1,0.1,0.1,0.2c0,0.1,0.1,0.1,0.1,0.2
			c0.1,0.2,0.1,0.3,0.1,0.5s0,0.3-0.1,0.4c-0.1,0.1-0.1,0.2-0.2,0.3c-0.1,0.1-0.2,0.2-0.3,0.2l-0.7,0.3l-0.3-0.6l0.7-0.3
			c0,0,0,0,0.1,0c0,0,0.1-0.1,0.1-0.1c0,0,0-0.1,0-0.2c0-0.1,0-0.1,0-0.2c0,0,0-0.1-0.1-0.1c0-0.1-0.1-0.1-0.1-0.2
			c0-0.1-0.1-0.1-0.1-0.2c0-0.1-0.1-0.1-0.1-0.2c0,0-0.1-0.1-0.1-0.1c0,0-0.1-0.1-0.1-0.1L96.1,112.8z"/>
		<path class="st1" d="M98.3,114.2l-0.6,0.3l-1.7-3.5l0.6-0.3L98.3,114.2z"/>
		<path class="st1" d="M99.7,109.9l0.2-0.7l0.7,0.2l-0.2,0.7L99.7,109.9z M101.9,111.9c0.1,0.2,0.2,0.4,0.2,0.6c0,0.2,0,0.4,0,0.6
			c0,0.2-0.1,0.4-0.3,0.6c-0.1,0.2-0.3,0.3-0.5,0.5l-0.3,0.2l-0.4-0.6l0.3-0.2c0.1-0.1,0.3-0.2,0.4-0.3c0.1-0.1,0.1-0.2,0.2-0.3
			c0-0.1,0-0.2,0-0.4c0-0.1-0.1-0.3-0.2-0.4l-0.9-1.4l0.6-0.4L101.9,111.9z"/>
		<path class="st1" d="M103,112.4c0.1-0.1,0.2-0.2,0.3-0.2c0.1-0.1,0.2-0.1,0.2-0.2c0.1-0.1,0.1-0.1,0.1-0.2s0.1-0.1,0.1-0.2
			c0-0.1,0-0.2,0-0.3c0-0.1-0.1-0.2-0.1-0.3l-0.3,0.2c-0.1,0.1-0.2,0.1-0.2,0.1c-0.1,0-0.2,0.1-0.3,0.1c-0.1,0-0.2,0-0.3,0
			c-0.1,0-0.2,0-0.3-0.1c-0.1,0-0.2-0.1-0.3-0.2s-0.2-0.2-0.3-0.3c-0.1-0.1-0.1-0.2-0.2-0.3s-0.1-0.2-0.1-0.3c0-0.1,0-0.2,0-0.2
			c0-0.1,0-0.1,0-0.2c0-0.2,0.1-0.3,0.2-0.4c0.1-0.1,0.2-0.2,0.3-0.3c0.2-0.1,0.3-0.2,0.5-0.2c0.2,0,0.3,0,0.4,0
			c0.1,0,0.3,0.1,0.4,0.2c0.1,0.1,0.2,0.2,0.4,0.4l0.6,0.8c0.2,0.2,0.3,0.4,0.3,0.6c0,0.2,0,0.4,0,0.6c0,0.1-0.1,0.2-0.1,0.3
			c-0.1,0.1-0.1,0.2-0.2,0.3c-0.1,0.1-0.2,0.2-0.3,0.3c-0.1,0.1-0.2,0.2-0.4,0.3L103,112.4z M102.3,109.8c-0.1,0.1-0.2,0.2-0.2,0.3
			c0,0.1,0,0.3,0.2,0.4c0,0.1,0.1,0.1,0.2,0.1c0.1,0,0.1,0,0.2,0c0.1,0,0.1,0,0.2,0s0.1-0.1,0.2-0.1l0.3-0.2l-0.2-0.3
			c-0.1-0.1-0.1-0.2-0.2-0.2c-0.1-0.1-0.1-0.1-0.2-0.1c0,0-0.1,0-0.1,0c0,0-0.1,0-0.1,0C102.4,109.7,102.4,109.7,102.3,109.8
			C102.4,109.8,102.3,109.8,102.3,109.8z"/>
		<path class="st1" d="M105.8,109c0.2,0.2,0.3,0.4,0.3,0.6c0.1,0.2,0.1,0.4,0.1,0.6s-0.1,0.4-0.2,0.6s-0.3,0.4-0.5,0.5l-0.3,0.2
			l-0.4-0.5l0.3-0.2c0.1-0.1,0.2-0.2,0.3-0.3c0.1-0.1,0.1-0.2,0.1-0.3c0-0.1,0-0.2-0.1-0.4c-0.1-0.1-0.1-0.3-0.3-0.4l-1-1.3l0.5-0.4
			L105.8,109z"/>
		<path class="st1" d="M109.7,102.6l0.6,0.5c0,0,0.1,0.1,0.1,0.1c0,0,0.1,0,0.1,0c0,0,0.1,0,0.1,0c0,0,0.1,0,0.1-0.1
			c0,0,0.1,0,0.1-0.1s0,0,0,0l0.1-0.1l0.5,0.5l-0.1,0.1c0,0-0.1,0.1-0.1,0.1c-0.1,0-0.1,0.1-0.2,0.1c-0.1,0-0.1,0.1-0.2,0.1
			c-0.1,0-0.1,0-0.2,0.1c0,0.3-0.1,0.5-0.4,0.8l-2.1,2.3c-0.1,0.1-0.2,0.2-0.3,0.2c-0.1,0.1-0.2,0.1-0.4,0.1c-0.1,0-0.1,0-0.2,0
			c-0.1,0-0.1,0-0.2,0c-0.1,0-0.1-0.1-0.2-0.1c-0.1,0-0.2-0.1-0.2-0.2c-0.1-0.1-0.1-0.1-0.2-0.2c-0.1-0.1-0.1-0.2-0.2-0.2
			s-0.1-0.2-0.1-0.2c0-0.1-0.1-0.1-0.1-0.1l0.3-0.2l0.3-0.2c0,0,0.1,0.1,0.1,0.2c0,0.1,0.1,0.1,0.1,0.2c0,0.1,0.1,0.1,0.1,0.2
			c0,0.1,0.1,0.1,0.1,0.1c0.1,0.1,0.1,0.1,0.2,0.1c0.1,0,0.1,0,0.2,0c0,0,0.1,0,0.1,0c0,0,0.1-0.1,0.1-0.1l2.1-2.3
			c0.1-0.1,0.1-0.1,0.1-0.2c0-0.1,0-0.1,0-0.2c0-0.1,0-0.1-0.1-0.2l-0.7-0.6L109.7,102.6z M107.3,104.9l-0.7,0l0-0.6l0.7,0
			L107.3,104.9z M108.1,104l-0.7,0l0-0.7l0.7,0L108.1,104z"/>
		<path class="st1" d="M111.1,103.7l-0.6-0.4l0.9-1.3c0,0,0-0.1,0.1-0.1c0,0,0-0.1,0.1-0.1c0,0,0-0.1,0-0.1c0,0,0-0.1,0-0.1
			c-0.1,0-0.2-0.1-0.3-0.1c-0.1,0-0.3,0-0.4,0c-0.2,0-0.3,0-0.5,0c-0.2,0-0.3,0-0.5,0.1c-0.2,0-0.3,0.1-0.4,0.1s-0.2,0.1-0.3,0.1
			l-0.5-0.4l0.5-2.6l0.6,0.1l-0.4,2.1c0.1,0,0.2,0,0.3-0.1c0.1,0,0.2,0,0.4-0.1c0.1,0,0.3,0,0.4-0.1c0.1,0,0.3,0,0.4,0s0.3,0,0.4,0
			c0.1,0,0.2,0,0.3,0c0.1,0,0.2,0,0.2,0.1s0.1,0.1,0.2,0.1c0.1,0,0.1,0.1,0.1,0.1c0,0,0.1,0.1,0.1,0.1c0,0,0.1,0.1,0.1,0.2
			c0,0.1,0,0.2,0,0.3c0,0.1,0,0.2-0.1,0.3s-0.1,0.3-0.2,0.4L111.1,103.7z"/>
		<path class="st1" d="M114.2,99.1L114.2,99.1c-0.1,0.2-0.1,0.2-0.2,0.3c0,0.1-0.1,0.1-0.2,0.1c0.2,0.1,0.3,0.3,0.5,0.5
			s0.2,0.4,0.2,0.5c0,0.2,0,0.4,0,0.6c0,0.2-0.1,0.4-0.3,0.6l-0.2,0.3l-0.6-0.4l0.2-0.3c0.1-0.1,0.2-0.3,0.2-0.4c0-0.1,0-0.2,0-0.4
			c0-0.1-0.1-0.2-0.2-0.3s-0.2-0.2-0.4-0.3l-1.4-0.9l0.4-0.6L113,99c0.1,0,0.1,0.1,0.2,0.1c0.1,0,0.1,0,0.2,0c0,0,0.1-0.1,0.1-0.1
			c0,0,0-0.1,0.1-0.1l0.1-0.1L114.2,99.1z"/>
		<path class="st1" d="M112,94.8l0.2,0.6l-0.6,0.2l-0.2-0.6L112,94.8z M112.5,95.6l0.2,0.6l-0.6,0.2l-0.2-0.6L112.5,95.6z M113,94.6
			l0.2,0.6l-0.6,0.2l-0.2-0.6L113,94.6z M115,97.5c-0.1,0.3-0.3,0.5-0.6,0.6c0,0.1,0.1,0.3,0,0.4s-0.1,0.2-0.1,0.4l-0.3,0.6
			l-0.6-0.3l0.3-0.6c0,0,0,0,0-0.1c0,0,0-0.1,0-0.1s0-0.1-0.1-0.2c0-0.1-0.1-0.1-0.2-0.1l-0.7-0.3l0.3-0.6l0.7,0.3
			c0.1,0.1,0.2,0.1,0.3,0s0.2-0.1,0.2-0.3c0,0,0,0,0-0.1c0,0,0-0.1,0-0.1c0,0,0-0.1-0.1-0.2c0-0.1-0.1-0.1-0.2-0.1l-0.7-0.3l0.3-0.6
			l0.7,0.3c0.1,0.1,0.2,0.1,0.3,0c0.1,0,0.2-0.1,0.2-0.3c0,0,0-0.1,0-0.1c0,0,0-0.1,0-0.1c0,0,0-0.1-0.1-0.2c0-0.1-0.1-0.1-0.2-0.1
			c0,0-0.1,0-0.1-0.1c-0.1,0-0.1,0-0.2-0.1c-0.1,0-0.1,0-0.2-0.1s-0.1,0-0.2,0c-0.1,0-0.1,0-0.2,0c0,0-0.1,0-0.1,0l0.1-0.7
			c0,0,0,0,0.1,0c0,0,0.1,0,0.2,0c0.1,0,0.1,0,0.2,0.1c0.1,0,0.2,0,0.2,0.1c0.1,0,0.2,0,0.2,0.1c0.1,0,0.1,0.1,0.2,0.1
			c0.2,0.1,0.3,0.2,0.4,0.3s0.2,0.2,0.2,0.4c0,0.1,0.1,0.3,0,0.4s0,0.3-0.1,0.4c-0.1,0.3-0.3,0.5-0.6,0.6c0,0.1,0.1,0.3,0,0.4
			C115.1,97.3,115,97.4,115,97.5z"/>
	</g>
</g>
<g>
	<path class="st1" d="M74.6,49.5c-0.3,0-0.7,0-0.9-0.1S73.2,49.2,73,49c-0.1,0.1-0.2,0.2-0.3,0.3s-0.2,0.1-0.4,0.2
		c-0.1,0-0.3,0.1-0.4,0.1c-0.1,0-0.3,0-0.4,0c-0.2,0-0.4,0-0.5,0s-0.3-0.1-0.5-0.2v0.2c0,1-0.3,1.7-0.8,2.2s-1.3,0.7-2.4,0.7h-1.1
		c-0.5,0-0.9-0.1-1.3-0.2c-0.4-0.2-0.8-0.4-1.1-0.7c-0.3-0.3-0.5-0.7-0.7-1.1c-0.2-0.4-0.2-0.9-0.2-1.4c0-0.2,0-0.5,0-0.7
		c0-0.2,0.1-0.5,0.1-0.7s0.2-0.5,0.3-0.8c0.1-0.3,0.2-0.6,0.4-0.9l1.2,0.6c-0.1,0.3-0.2,0.5-0.3,0.7s-0.2,0.4-0.2,0.6
		c-0.1,0.2-0.1,0.4-0.1,0.6c0,0.2,0,0.4,0,0.6c0,0.3,0,0.6,0.2,0.8c0.1,0.3,0.2,0.5,0.4,0.7c0.2,0.2,0.4,0.3,0.7,0.4
		c0.2,0.1,0.5,0.2,0.8,0.2h1.1c0.4,0,0.7,0,0.9-0.1c0.2-0.1,0.4-0.2,0.6-0.3s0.2-0.3,0.3-0.5c0-0.2,0.1-0.4,0.1-0.7v-3.8h1.4v1
		c0,0.3,0,0.6,0.1,0.8s0.1,0.3,0.2,0.4c0.1,0.1,0.2,0.2,0.3,0.2c0.1,0,0.2,0,0.4,0c0.1,0,0.2,0,0.3,0s0.2-0.1,0.3-0.1
		c0.1-0.1,0.2-0.2,0.2-0.3s0.1-0.2,0.1-0.4v-1.6h1.4v1.6c0,0.3,0.1,0.5,0.2,0.6c0.1,0.1,0.4,0.2,0.7,0.2h0c0.1,0,0.1,0,0.2,0
		c0.1,0,0.2-0.1,0.2-0.1c0.1-0.1,0.1-0.1,0.2-0.3s0.1-0.3,0.1-0.4c0-0.1,0-0.3,0-0.5c0-0.2-0.1-0.4-0.1-0.6c0-0.2-0.1-0.4-0.1-0.5
		c0-0.2-0.1-0.3-0.1-0.4l1.3-0.4c0,0,0,0.1,0,0.2s0.1,0.2,0.1,0.3c0,0.1,0.1,0.3,0.1,0.4c0,0.2,0.1,0.3,0.1,0.5s0,0.3,0.1,0.5
		c0,0.2,0,0.3,0,0.4c0,0.4-0.1,0.7-0.2,1c-0.1,0.3-0.3,0.5-0.5,0.7c-0.2,0.2-0.4,0.3-0.7,0.4C75.1,49.5,74.8,49.5,74.6,49.5z"/>
	<path class="st1" d="M82.3,49.5h-0.2c-0.1,0-0.3,0-0.4,0c-0.1,0-0.3-0.1-0.4-0.2c0,0.5-0.2,0.9-0.3,1.3c-0.2,0.4-0.4,0.7-0.7,1
		c-0.3,0.3-0.6,0.5-1,0.6c-0.4,0.1-0.8,0.2-1.3,0.2h-0.7v-1.4h0.7c0.4,0,0.7,0,0.9-0.1c0.3-0.1,0.5-0.2,0.6-0.4
		c0.2-0.2,0.3-0.4,0.4-0.6c0.1-0.3,0.1-0.6,0.1-0.9v-3.3h1.4v1.6c0,0.2,0,0.3,0.1,0.4s0.2,0.2,0.2,0.2s0.2,0.1,0.3,0.1
		c0.1,0,0.1,0,0.2,0h0.2V49.5z"/>
	<path class="st1" d="M86.6,48.2v1.4h-0.3c-0.3,0-0.6,0-0.8-0.1c-0.3-0.1-0.5-0.2-0.6-0.4c-0.2,0.2-0.4,0.3-0.7,0.4
		c-0.3,0.1-0.6,0.1-1,0.1h-1v-1.4h1c0.2,0,0.4,0,0.5-0.1c0.1,0,0.2-0.1,0.3-0.2c0.1-0.1,0.1-0.1,0.1-0.2c0-0.1,0-0.2,0-0.2v-1.8h1.4
		v1.7c0,0.2,0,0.3,0.1,0.4c0.1,0.1,0.2,0.2,0.2,0.2c0.1,0,0.2,0.1,0.3,0.1c0.1,0,0.2,0,0.2,0H86.6z M83.2,51.5l1-1l1,1l-1,1
		L83.2,51.5z"/>
	<path class="st1" d="M92.2,48.2v1.4h-0.8c-0.3,0-0.6,0-0.8-0.1c-0.3-0.1-0.5-0.2-0.6-0.4c-0.2,0.2-0.4,0.3-0.7,0.4s-0.6,0.1-1,0.1
		h-1.9v-1.4h1.9c0.2,0,0.4,0,0.5-0.1c0.1,0,0.2-0.1,0.3-0.2c0.1-0.1,0.1-0.1,0.1-0.2c0-0.1,0-0.2,0-0.2v-1.8h1.4v1.7
		c0,0.2,0,0.3,0.1,0.4c0.1,0.1,0.2,0.2,0.2,0.2c0.1,0,0.2,0.1,0.3,0.1c0.1,0,0.2,0,0.2,0H92.2z M87.8,52.6l-0.9-0.9l0.9-0.9l0.9,0.9
		L87.8,52.6z M90,52.6l-0.9-0.9l0.9-0.9l0.9,0.9L90,52.6z"/>
	<path class="st1" d="M99.6,47.4c0,0-0.1,0.1-0.3,0.2c-0.2,0.1-0.4,0.3-0.7,0.4s-0.6,0.3-1,0.5c-0.4,0.2-0.8,0.4-1.2,0.5
		c-0.4,0.2-0.9,0.3-1.4,0.4c-0.5,0.1-0.9,0.2-1.4,0.2H92v-1.4h1.7c0.4,0,0.7,0,1.1-0.1c0.4-0.1,0.8-0.2,1.2-0.3
		c0.4-0.1,0.8-0.2,1.1-0.4s0.7-0.3,0.9-0.4c-0.2-0.1-0.3-0.1-0.5-0.2c-0.2-0.1-0.4-0.1-0.6-0.2c-0.2-0.1-0.4-0.1-0.6-0.2
		c-0.2-0.1-0.4-0.1-0.6-0.2c-0.2,0-0.3-0.1-0.5-0.1c-0.1,0-0.2,0-0.3,0c-0.1,0-0.2,0-0.2,0c-0.1,0-0.1,0.1-0.2,0.1
		c-0.1,0-0.1,0.1-0.1,0.2c0,0.1-0.1,0.2-0.1,0.3L93,46.4c0.1-0.2,0.2-0.4,0.3-0.6s0.2-0.4,0.4-0.5c0.1-0.1,0.3-0.3,0.5-0.3
		c0.2-0.1,0.4-0.1,0.7-0.1c0.1,0,0.2,0,0.4,0.1s0.4,0.1,0.6,0.2c0.2,0.1,0.5,0.1,0.7,0.2c0.3,0.1,0.5,0.2,0.8,0.3
		c0.3,0.1,0.5,0.2,0.7,0.3c0.2,0.1,0.5,0.2,0.7,0.2s0.4,0.1,0.5,0.2c0.1,0,0.2,0.1,0.3,0.1L99.6,47.4z M94.8,51.4l1-1l1,1l-1,1
		L94.8,51.4z"/>
</g>
</svg>
